<svg width="25" height="24" viewBox="0 0 25 24" fill="none" xmlns="http://www.w3.org/2000/svg">
<path fill-rule="evenodd" clip-rule="evenodd" d="M6.025 1.55C6.16664 1.36115 6.38893 1.25 6.625 1.25H18.625C18.8611 1.25 19.0834 1.36115 19.225 1.55L22.225 5.55C22.3224 5.67982 22.375 5.83772 22.375 6V20C22.375 20.7293 22.0853 21.4288 21.5695 21.9445C21.0538 22.4603 20.3543 22.75 19.625 22.75H5.625C4.89565 22.75 4.19618 22.4603 3.68046 21.9445C3.16473 21.4288 2.875 20.7293 2.875 20V6C2.875 5.83772 2.92763 5.67982 3.025 5.55L6.025 1.55ZM7 2.75L4.375 6.25V20C4.375 20.3315 4.5067 20.6495 4.74112 20.8839C4.97554 21.1183 5.29348 21.25 5.625 21.25H19.625C19.9565 21.25 20.2745 21.1183 20.5089 20.8839C20.7433 20.6495 20.875 20.3315 20.875 20V6.25L18.25 2.75H7Z" fill="#343434"/>
<path fill-rule="evenodd" clip-rule="evenodd" d="M2.875 6C2.875 5.58579 3.21079 5.25 3.625 5.25H21.625C22.0392 5.25 22.375 5.58579 22.375 6C22.375 6.41421 22.0392 6.75 21.625 6.75H3.625C3.21079 6.75 2.875 6.41421 2.875 6Z" fill="#343434"/>
<path fill-rule="evenodd" clip-rule="evenodd" d="M8.625 9.25C9.03921 9.25 9.375 9.58579 9.375 10C9.375 10.862 9.71741 11.6886 10.3269 12.2981C10.9364 12.9076 11.763 13.25 12.625 13.25C13.487 13.25 14.3136 12.9076 14.9231 12.2981C15.5326 11.6886 15.875 10.862 15.875 10C15.875 9.58579 16.2108 9.25 16.625 9.25C17.0392 9.25 17.375 9.58579 17.375 10C17.375 11.2598 16.8746 12.468 15.9838 13.3588C15.093 14.2496 13.8848 14.75 12.625 14.75C11.3652 14.75 10.157 14.2496 9.26624 13.3588C8.37544 12.468 7.875 11.2598 7.875 10C7.875 9.58579 8.21079 9.25 8.625 9.25Z" fill="#343434"/>
</svg>
