<svg width="19" height="17" viewBox="0 0 19 17" fill="none" xmlns="http://www.w3.org/2000/svg">
<path fill-rule="evenodd" clip-rule="evenodd" d="M0.660156 1.16518C0.660156 0.849587 0.915994 0.59375 1.23158 0.59375H4.214C4.73842 0.59375 5.19554 0.950661 5.32273 1.45942L5.67774 2.87946H17.593C18.3665 2.87946 18.9165 3.63176 18.682 4.36884L17.0457 9.5117C16.8948 9.98596 16.4543 10.308 15.9566 10.308H6.5173C6.28061 10.308 6.08873 10.4999 6.08873 10.7366C6.08873 10.9733 6.28061 11.1652 6.5173 11.1652H15.803C16.1186 11.1652 16.3744 11.421 16.3744 11.7366C16.3744 12.0522 16.1186 12.308 15.803 12.308H6.5173C5.64942 12.308 4.94587 11.6045 4.94587 10.7366C4.94587 9.97526 5.4873 9.34038 6.20613 9.19598L4.67869 3.59538L4.214 1.73661H1.23158C0.915994 1.73661 0.660156 1.48077 0.660156 1.16518ZM7.38232 9.16518H15.9566L17.593 4.02232H5.97973L7.38232 9.16518Z" fill="white"/>
<path fill-rule="evenodd" clip-rule="evenodd" d="M8.37402 15.4509C8.84741 15.4509 9.23117 15.0671 9.23117 14.5938C9.23117 14.1204 8.84741 13.7366 8.37402 13.7366C7.90064 13.7366 7.51688 14.1204 7.51688 14.5938C7.51688 15.0671 7.90064 15.4509 8.37402 15.4509ZM8.37402 16.5938C9.47859 16.5938 10.374 15.6983 10.374 14.5938C10.374 13.4892 9.47859 12.5938 8.37402 12.5938C7.26945 12.5938 6.37402 13.4892 6.37402 14.5938C6.37402 15.6983 7.26945 16.5938 8.37402 16.5938Z" fill="white"/>
<path fill-rule="evenodd" clip-rule="evenodd" d="M14.0889 15.4509C14.5623 15.4509 14.946 15.0671 14.946 14.5938C14.946 14.1204 14.5623 13.7366 14.0889 13.7366C13.6155 13.7366 13.2317 14.1204 13.2317 14.5938C13.2317 15.0671 13.6155 15.4509 14.0889 15.4509ZM14.0889 16.5938C15.1934 16.5938 16.0889 15.6983 16.0889 14.5938C16.0889 13.4892 15.1934 12.5938 14.0889 12.5938C12.9843 12.5938 12.0889 13.4892 12.0889 14.5938C12.0889 15.6983 12.9843 16.5938 14.0889 16.5938Z" fill="white"/>
</svg>
