<svg width="25" height="25" viewBox="0 0 25 25" fill="none" xmlns="http://www.w3.org/2000/svg">
<g clip-path="url(#clip0_1756_1631)">
<path d="M15.557 11.4469C15.557 12.1789 15.017 12.7789 14.333 12.7789C13.661 12.7789 13.109 12.1789 13.109 11.4469C13.109 10.7149 13.649 10.1149 14.333 10.1149C15.017 10.1149 15.557 10.7149 15.557 11.4469ZM9.953 10.1149C9.269 10.1149 8.729 10.7149 8.729 11.4469C8.729 12.1789 9.281 12.7789 9.953 12.7789C10.637 12.7789 11.177 12.1789 11.177 11.4469C11.189 10.7149 10.637 10.1149 9.953 10.1149ZM22.625 2.51888V24.0469C19.6018 21.3753 20.5687 22.2596 17.057 18.9949L17.693 21.2149H4.085C2.729 21.2149 1.625 20.1109 1.625 18.7429V2.51888C1.625 1.15087 2.729 0.046875 4.085 0.046875H20.165C21.521 0.046875 22.625 1.15087 22.625 2.51888ZM19.205 13.8949C19.205 10.0309 17.477 6.89887 17.477 6.89887C15.749 5.60287 14.105 5.63888 14.105 5.63888L13.937 5.83087C15.977 6.45487 16.925 7.35488 16.925 7.35488C14.0745 5.79258 10.7261 5.7923 7.961 7.00688C7.517 7.21088 7.253 7.35488 7.253 7.35488C7.253 7.35488 8.249 6.40687 10.409 5.78288L10.289 5.63888C10.289 5.63888 8.645 5.60287 6.917 6.89887C6.917 6.89887 5.189 10.0309 5.189 13.8949C5.189 13.8949 6.197 15.6349 8.849 15.7189C8.849 15.7189 9.293 15.1789 9.653 14.7229C8.129 14.2669 7.553 13.3069 7.553 13.3069C7.72953 13.4304 8.02063 13.5906 8.045 13.6069C10.0705 14.7412 12.9476 15.1128 15.533 14.0269C15.953 13.8709 16.421 13.6429 16.913 13.3189C16.913 13.3189 16.313 14.3029 14.741 14.7469C15.101 15.2029 15.533 15.7189 15.533 15.7189C18.185 15.6349 19.205 13.8949 19.205 13.8949Z" fill="#ED1651"/>
</g>
<defs>
<clipPath id="clip0_1756_1631">
<rect width="24" height="24" fill="white" transform="translate(0.125 0.046875)"/>
</clipPath>
</defs>
</svg>
