<svg width="49" height="49" viewBox="0 0 49 49" fill="none" xmlns="http://www.w3.org/2000/svg">
<path fill-rule="evenodd" clip-rule="evenodd" d="M6.12793 20.1143C6.12793 18.4574 7.47108 17.1143 9.12793 17.1143H39.1279C40.7848 17.1143 42.1279 18.4574 42.1279 20.1143V41.1143C42.1279 42.7711 40.7848 44.1143 39.1279 44.1143H9.12793C7.47108 44.1143 6.12793 42.7711 6.12793 41.1143V20.1143ZM39.1279 20.1143H9.12793V41.1143H39.1279V20.1143Z" fill="#343434"/>
<path fill-rule="evenodd" clip-rule="evenodd" d="M3.12793 9.61426C3.12793 7.9574 4.47108 6.61426 6.12793 6.61426H42.1279C43.7848 6.61426 45.1279 7.9574 45.1279 9.61426V12.6143C45.1279 14.2711 43.7848 15.6143 42.1279 15.6143H6.12793C4.47108 15.6143 3.12793 14.2711 3.12793 12.6143V9.61426ZM42.1279 9.61426H6.12793V12.6143H42.1279V9.61426Z" fill="#343434"/>
<path fill-rule="evenodd" clip-rule="evenodd" d="M16.6279 24.6143C16.6279 22.9574 17.9711 21.6143 19.6279 21.6143H28.6279C30.2848 21.6143 31.6279 22.9574 31.6279 24.6143V26.1143C31.6279 27.7711 30.2848 29.1143 28.6279 29.1143H19.6279C17.9711 29.1143 16.6279 27.7711 16.6279 26.1143V24.6143ZM28.6279 24.6143H19.6279V26.1143H28.6279V24.6143Z" fill="#343434"/>
</svg>
