<svg width="47" height="49" viewBox="0 0 47 49" fill="none" xmlns="http://www.w3.org/2000/svg">
<path fill-rule="evenodd" clip-rule="evenodd" d="M19.3779 3.61426C9.83005 3.61426 3.62793 11.0633 3.62793 20.1143C3.62793 24.5019 6.14314 29.6785 9.52784 34.3248C12.891 38.9415 16.8864 42.7281 19.4332 44.3488C20.1322 44.7935 20.3382 45.7207 19.8934 46.4196C19.4487 47.1185 18.5215 47.3245 17.8226 46.8798C14.8694 45.0004 10.6148 40.912 7.10302 36.0912C3.61272 31.3 0.62793 25.4766 0.62793 20.1143C0.62793 9.66518 7.92581 0.614258 19.3779 0.614258C30.83 0.614258 38.1279 9.66518 38.1279 20.1143C38.1279 20.9427 37.4564 21.6143 36.6279 21.6143C35.7995 21.6143 35.1279 20.9427 35.1279 20.1143C35.1279 11.0633 28.9258 3.61426 19.3779 3.61426Z" fill="#343434"/>
<path fill-rule="evenodd" clip-rule="evenodd" d="M19.3779 15.6143C16.8926 15.6143 14.8779 17.629 14.8779 20.1143C14.8779 22.5995 16.8926 24.6143 19.3779 24.6143C21.8632 24.6143 23.8779 22.5995 23.8779 20.1143C23.8779 17.629 21.8632 15.6143 19.3779 15.6143ZM11.8779 20.1143C11.8779 15.9721 15.2358 12.6143 19.3779 12.6143C23.5201 12.6143 26.8779 15.9721 26.8779 20.1143C26.8779 24.2564 23.5201 27.6143 19.3779 27.6143C15.2358 27.6143 11.8779 24.2564 11.8779 20.1143Z" fill="#343434"/>
<path fill-rule="evenodd" clip-rule="evenodd" d="M30.7566 24.614C31.9282 23.4425 33.8277 23.4425 34.9992 24.614L45.9386 35.5534C46.5244 36.1392 46.5244 37.0889 45.9386 37.6747C45.3528 38.2605 44.4031 38.2605 43.8173 37.6747L43.3779 37.2354V45.614C43.3779 47.2709 42.0348 48.614 40.3779 48.614H25.3779C23.7211 48.614 22.3779 47.2709 22.3779 45.614V37.2354L21.9386 37.6747C21.3528 38.2605 20.4031 38.2605 19.8173 37.6747C19.2315 37.0889 19.2315 36.1392 19.8173 35.5534L30.7566 24.614ZM25.3779 34.2354V45.614H40.3779V34.2354L32.8779 26.7354L25.3779 34.2354Z" fill="#343434"/>
<path d="M29.8779 35.1143H35.8779V41.1143H29.8779V35.1143Z" fill="#343434"/>
</svg>
