<svg width="17" height="17" viewBox="0 0 17 17" fill="none" xmlns="http://www.w3.org/2000/svg">
<path fill-rule="evenodd" clip-rule="evenodd" d="M7.08652 3.57129C5.66432 3.57129 4.56152 4.67056 4.56152 6.06856C4.56152 6.34471 4.33767 6.56856 4.06152 6.56856C3.78538 6.56856 3.56152 6.34471 3.56152 6.06856C3.56152 4.10962 5.12073 2.57129 7.08652 2.57129C8.00675 2.57129 8.89167 2.92255 9.56152 3.50375C10.2314 2.92255 11.1163 2.57129 12.0365 2.57129C14.0023 2.57129 15.5615 4.10962 15.5615 6.06856C15.5615 7.26428 15.0142 8.30947 14.1582 9.34723C13.3171 10.3668 12.1262 11.4391 10.74 12.6872L10.6936 12.729L10.6925 12.7299L9.89501 13.4438C9.70462 13.6143 9.41637 13.6137 9.22663 13.4426L8.42913 12.7232L8.42202 12.7168C8.0249 12.36 7.64474 12.0185 7.28586 11.6903C7.08208 11.5039 7.06796 11.1876 7.25432 10.9839C7.44068 10.7801 7.75694 10.766 7.96072 10.9523C8.31635 11.2775 8.69376 11.6166 9.09228 11.9747L9.09892 11.9807L9.56279 12.3991L10.0245 11.9858C10.0247 11.9856 10.0249 11.9854 10.0251 11.9852C11.4513 10.7011 12.5942 9.67159 13.3868 8.71088C14.1738 7.75681 14.5615 6.93279 14.5615 6.06856C14.5615 4.67056 13.4587 3.57129 12.0365 3.57129C11.2292 3.57129 10.4478 3.94609 9.94072 4.53615C9.84573 4.64667 9.70725 4.71025 9.56152 4.71025C9.41579 4.71025 9.27731 4.64667 9.18233 4.53615C8.67521 3.94609 7.89384 3.57129 7.08652 3.57129Z" fill="#343434"/>
<path fill-rule="evenodd" clip-rule="evenodd" d="M3.76152 6.57129C2.78305 6.57129 2.06152 7.29268 2.06152 8.16938C2.06152 8.71821 2.31569 9.25945 2.87855 9.91574C3.44632 10.5777 4.26816 11.2898 5.30858 12.1896L5.30931 12.1902L5.56277 12.4102L5.81406 12.1937C5.81423 12.1936 5.81439 12.1934 5.81456 12.1933C6.85486 11.2917 7.67659 10.5788 8.24438 9.91634C8.80736 9.25948 9.06152 8.71822 9.06152 8.16938C9.06152 7.29268 8.33999 6.57129 7.36152 6.57129C6.80827 6.57129 6.27583 6.8193 5.93448 7.20159C5.83962 7.30782 5.70395 7.36856 5.56152 7.36856C5.4191 7.36856 5.28343 7.30782 5.18857 7.20159C4.84721 6.8193 4.31477 6.57129 3.76152 6.57129ZM1.06152 8.16938C1.06152 6.69622 2.27599 5.57129 3.76152 5.57129C4.42205 5.57129 5.06075 5.80074 5.56152 6.18849C6.0623 5.80074 6.701 5.57129 7.36152 5.57129C8.84705 5.57129 10.0615 6.69622 10.0615 8.16938C10.0615 9.0625 9.63569 9.82969 9.00366 10.5671C8.38489 11.2891 7.51204 12.0455 6.50962 12.9142L6.46898 12.9494L6.46789 12.9504L5.88789 13.4501C5.69978 13.6122 5.42123 13.6116 5.23373 13.4489L4.62364 12.9193C3.61699 12.0488 2.7404 11.2907 2.11949 10.5668C1.48736 9.82972 1.06152 9.06251 1.06152 8.16938Z" fill="#343434"/>
</svg>
