<svg width="25" height="25" viewBox="0 0 25 25" fill="none" xmlns="http://www.w3.org/2000/svg">
<path fill-rule="evenodd" clip-rule="evenodd" d="M12.125 3.04688C9.6806 3.04688 9.3746 3.05708 8.4146 3.10088C7.4564 3.14468 6.8018 3.29708 6.2294 3.51968C5.6294 3.74528 5.0852 4.09927 4.6352 4.55768C4.17753 5.00716 3.82331 5.55097 3.5972 6.15127C3.3758 6.72368 3.2228 7.37888 3.179 8.33708C3.1358 9.29648 3.125 9.60188 3.125 12.0469C3.125 14.4919 3.1352 14.7973 3.179 15.7573C3.2228 16.7155 3.3752 17.3701 3.5978 17.9425C3.8234 18.5425 4.1774 19.0867 4.6358 19.5367C5.08529 19.9943 5.62911 20.3485 6.2294 20.5747C6.8018 20.7967 7.4564 20.9491 8.4146 20.9929C9.3746 21.0367 9.6806 21.0469 12.125 21.0469C14.5694 21.0469 14.8754 21.0367 15.8354 20.9929C16.7936 20.9491 17.4482 20.7967 18.0206 20.5741C18.6206 20.3485 19.1648 19.9945 19.6148 19.5361C20.0725 19.0866 20.4267 18.5428 20.6528 17.9425C20.8748 17.3701 21.0272 16.7155 21.071 15.7573C21.1148 14.7973 21.125 14.4913 21.125 12.0469C21.125 9.60248 21.1148 9.29648 21.071 8.33648C21.0272 7.37828 20.8748 6.72368 20.6522 6.15127C20.4262 5.55071 20.072 5.00667 19.6142 4.55708C19.1647 4.09941 18.6209 3.74519 18.0206 3.51908C17.4482 3.29768 16.793 3.14468 15.8348 3.10088C14.8754 3.05768 14.57 3.04688 12.125 3.04688ZM12.125 4.66868C14.528 4.66868 14.813 4.67768 15.7622 4.72088C16.6394 4.76108 17.1158 4.90688 17.4332 5.03108C17.8532 5.19368 18.1532 5.38928 18.4682 5.70368C18.7832 6.01868 18.9782 6.31868 19.1408 6.73868C19.2644 7.05608 19.4108 7.53247 19.451 8.40968C19.4942 9.35888 19.5032 9.64388 19.5032 12.0469C19.5032 14.4499 19.4942 14.7349 19.451 15.6841C19.4108 16.5613 19.265 17.0377 19.1408 17.3551C18.9968 17.746 18.7669 18.0997 18.4682 18.3901C18.1778 18.6889 17.8242 18.9187 17.4332 19.0627C17.1158 19.1863 16.6394 19.3327 15.7622 19.3729C14.813 19.4161 14.5286 19.4251 12.125 19.4251C9.7214 19.4251 9.437 19.4161 8.4878 19.3729C7.6106 19.3327 7.1342 19.1869 6.8168 19.0627C6.42587 18.9186 6.0722 18.6888 5.7818 18.3901C5.48311 18.0996 5.25328 17.746 5.1092 17.3551C4.9856 17.0377 4.8392 16.5613 4.799 15.6841C4.7558 14.7349 4.7468 14.4499 4.7468 12.0469C4.7468 9.64388 4.7558 9.35888 4.799 8.40968C4.8392 7.53247 4.985 7.05608 5.1092 6.73868C5.2718 6.31868 5.4674 6.01868 5.7818 5.70368C6.07216 5.4049 6.42585 5.17506 6.8168 5.03108C7.1342 4.90747 7.6106 4.76108 8.4878 4.72088C9.437 4.67768 9.722 4.66868 12.125 4.66868Z" fill="#ED1651"/>
<path fill-rule="evenodd" clip-rule="evenodd" d="M12.125 15.0497C11.7307 15.0497 11.3402 14.972 10.9758 14.8211C10.6115 14.6702 10.2804 14.449 10.0016 14.1701C9.72273 13.8913 9.50153 13.5602 9.35061 13.1959C9.1997 12.8315 9.12202 12.441 9.12202 12.0467C9.12202 11.6523 9.1997 11.2618 9.35061 10.8975C9.50153 10.5331 9.72273 10.2021 10.0016 9.92322C10.2804 9.64437 10.6115 9.42317 10.9758 9.27225C11.3402 9.12134 11.7307 9.04366 12.125 9.04366C12.9215 9.04366 13.6853 9.36005 14.2485 9.92322C14.8116 10.4864 15.128 11.2502 15.128 12.0467C15.128 12.8431 14.8116 13.6069 14.2485 14.1701C13.6853 14.7333 12.9215 15.0497 12.125 15.0497ZM12.125 7.42066C10.8981 7.42066 9.72149 7.90804 8.85395 8.77559C7.9864 9.64313 7.49902 10.8198 7.49902 12.0467C7.49902 13.2736 7.9864 14.4502 8.85395 15.3177C9.72149 16.1853 10.8981 16.6727 12.125 16.6727C13.3519 16.6727 14.5286 16.1853 15.3961 15.3177C16.2636 14.4502 16.751 13.2736 16.751 12.0467C16.751 10.8198 16.2636 9.64313 15.3961 8.77559C14.5286 7.90804 13.3519 7.42066 12.125 7.42066ZM18.0968 7.33666C18.0968 7.62668 17.9816 7.90481 17.7765 8.10989C17.5715 8.31496 17.2933 8.43016 17.0033 8.43016C16.7133 8.43016 16.4352 8.31496 16.2301 8.10989C16.025 7.90481 15.9098 7.62668 15.9098 7.33666C15.9098 7.04665 16.025 6.76851 16.2301 6.56344C16.4352 6.35837 16.7133 6.24316 17.0033 6.24316C17.2933 6.24316 17.5715 6.35837 17.7765 6.56344C17.9816 6.76851 18.0968 7.04665 18.0968 7.33666Z" fill="#ED1651"/>
</svg>
