<svg width="36" height="37" viewBox="0 0 36 37" fill="none" xmlns="http://www.w3.org/2000/svg">
<rect y="0.131958" width="36" height="36" rx="18" fill="#E9EAEA"/>
<path fill-rule="evenodd" clip-rule="evenodd" d="M15.2422 12.6555C13.896 12.6555 12.8047 13.7468 12.8047 15.093V21.093C12.8047 22.4392 13.896 23.5305 15.2422 23.5305H21.2422C22.5884 23.5305 23.6797 22.4392 23.6797 21.093V15.093C23.6797 13.7468 22.5884 12.6555 21.2422 12.6555H15.2422ZM11.6797 15.093C11.6797 13.1255 13.2747 11.5305 15.2422 11.5305H21.2422C23.2097 11.5305 24.8047 13.1255 24.8047 15.093V21.093C24.8047 23.0605 23.2097 24.6555 21.2422 24.6555H15.2422C13.2747 24.6555 11.6797 23.0605 11.6797 21.093V15.093ZM18.2422 16.4055C17.3102 16.4055 16.5547 17.161 16.5547 18.093C16.5547 19.025 17.3102 19.7805 18.2422 19.7805C19.1742 19.7805 19.9297 19.025 19.9297 18.093C19.9297 17.161 19.1742 16.4055 18.2422 16.4055ZM15.4297 18.093C15.4297 16.5397 16.6889 15.2805 18.2422 15.2805C19.7955 15.2805 21.0547 16.5397 21.0547 18.093C21.0547 19.6463 19.7955 20.9055 18.2422 20.9055C16.6889 20.9055 15.4297 19.6463 15.4297 18.093ZM22.1797 14.718C22.1797 14.4074 21.9278 14.1555 21.6172 14.1555C21.3065 14.1555 21.0547 14.4074 21.0547 14.718V14.719C21.0547 15.0297 21.3065 15.2815 21.6172 15.2815C21.9278 15.2815 22.1797 15.0297 22.1797 14.719V14.718Z" fill="#ED1651"/>
</svg>
