<svg width="49" height="33" viewBox="0 0 49 33" fill="none" xmlns="http://www.w3.org/2000/svg">
<g clip-path="url(#clip0_497_4994)">
<path d="M0.674805 0.675049H47.5198V31.905H0.674805V0.675049Z" stroke="white" stroke-width="1.35" stroke-linecap="round" stroke-linejoin="round"/>
<path d="M12.7353 18.9905L17.0553 25.5155L15.9753 26.2355L11.6553 19.7105L12.7353 18.9905Z" fill="white"/>
<path d="M13.185 23.8501L15.165 26.8651L14.085 27.5851L12.105 24.5701L13.185 23.8501Z" fill="white"/>
<path d="M10.8451 20.3406L12.8251 23.3106L11.7451 24.0306L9.76514 21.0606L10.8451 20.3406Z" fill="white"/>
<path d="M8.955 21.6904L13.275 28.2154L12.195 28.9354L7.875 22.4104L8.955 21.6904Z" fill="white"/>
<path d="M35.9999 3.64526L37.9799 6.61526L36.8999 7.38026L34.9199 4.36526L35.9999 3.64526Z" fill="white"/>
<path d="M32.2201 6.16553L34.2001 9.18053L33.1201 9.90053L31.1401 6.93053L32.2201 6.16553Z" fill="white"/>
<path d="M38.3403 7.15527L40.3203 10.1703L39.2403 10.8903L37.2603 7.92027L38.3403 7.15527Z" fill="white"/>
<path d="M34.1103 4.90527L38.4303 11.4303L37.3503 12.1503L33.0303 5.62527L34.1103 4.90527Z" fill="white"/>
<path d="M34.56 9.72021L36.54 12.6902L35.46 13.4102L33.48 10.4402L34.56 9.72021Z" fill="white"/>
<path d="M37.9799 25.965L35.9999 28.935L34.9199 28.215L36.8999 25.2L37.9799 25.965Z" fill="white"/>
<path d="M35.0103 23.9854L36.0903 24.7054L34.1103 27.7204L33.0303 26.9554L35.0103 23.9854Z" fill="white"/>
<path d="M33.1201 22.7703L34.2001 23.4903L32.2201 26.5053L31.1401 25.7403L33.1201 22.7703Z" fill="white"/>
<path d="M39.2403 21.6904L40.3203 22.4104L38.3403 25.3804L37.2603 24.6604L39.2403 21.6904Z" fill="white"/>
<path d="M37.3501 20.4751L38.4301 21.1951L36.4501 24.1651L35.3701 23.4451L37.3501 20.4751Z" fill="white"/>
<path d="M36.54 19.9803L34.56 22.9503L33.48 22.2303L35.46 19.2603L36.54 19.9803Z" fill="white"/>
<path d="M17.19 6.93053L12.87 13.4105L11.79 12.6905L16.11 6.16553L17.19 6.93053Z" fill="white"/>
<path d="M15.2101 5.62527L10.8901 12.1503L9.81006 11.4303L14.1301 4.90527L15.2101 5.62527Z" fill="white"/>
<path d="M13.275 4.36526L8.955 10.8903L7.875 10.1703L12.195 3.64526L13.275 4.36526Z" fill="white"/>
<path d="M24.1651 24.2104C28.3901 24.2104 31.8151 20.7854 31.8151 16.5604C31.8151 12.3354 28.3901 8.9104 24.1651 8.9104C19.9402 8.9104 16.5151 12.3354 16.5151 16.5604C16.5151 20.7854 19.9402 24.2104 24.1651 24.2104Z" stroke="white" stroke-width="1.35" stroke-linecap="round" stroke-linejoin="round"/>
<path d="M31.4551 18.8104C31.5451 17.5504 30.9601 16.2904 29.8351 15.5254C28.1701 14.4004 25.8751 14.8504 24.7501 16.5154C24.3451 17.2354 23.3101 18.0454 22.5451 18.2704C20.1601 19.1704 17.4601 18.0004 16.5601 15.6154V16.5154C16.5601 18.6304 17.3701 20.5204 18.7651 21.9154C19.0351 22.1854 21.0601 24.1654 24.1651 24.1654C27.4051 24.1654 30.4651 22.0054 31.2751 19.4404C31.3651 19.1704 31.4101 18.9904 31.4101 18.8554L31.4551 18.8104Z" fill="white"/>
<path d="M16.605 15.7504C17.55 18.0904 20.205 19.2154 22.545 18.3154C23.31 18.0454 24.345 17.2804 24.75 16.5604C25.875 14.8954 28.125 14.4454 29.835 15.5704C30.96 16.3354 31.545 17.5954 31.455 18.8554" stroke="white" stroke-width="1.53" stroke-linecap="round" stroke-linejoin="round"/>
</g>
<defs>
<clipPath id="clip0_497_4994">
<rect width="48.195" height="32.58" fill="white"/>
</clipPath>
</defs>
</svg>
