<svg width="25" height="24" viewBox="0 0 25 24" fill="none" xmlns="http://www.w3.org/2000/svg">
<path d="M8.72 12.7194C8.57931 12.5788 8.50018 12.3882 8.5 12.1894V11.8094C8.5023 11.6109 8.58112 11.4211 8.72 11.2794L13.86 6.14936C13.9539 6.05471 14.0817 6.00146 14.215 6.00146C14.3483 6.00146 14.4761 6.05471 14.57 6.14936L15.28 6.85936C15.3741 6.95153 15.4271 7.07767 15.4271 7.20936C15.4271 7.34105 15.3741 7.4672 15.28 7.55936L10.83 11.9994L15.28 16.4394C15.3747 16.5332 15.4279 16.661 15.4279 16.7944C15.4279 16.9277 15.3747 17.0555 15.28 17.1494L14.57 17.8494C14.4761 17.944 14.3483 17.9973 14.215 17.9973C14.0817 17.9973 13.9539 17.944 13.86 17.8494L8.72 12.7194Z" fill="#ED1651"/>
</svg>
