<svg width="332" height="15" viewBox="0 0 332 15" fill="none" xmlns="http://www.w3.org/2000/svg">
<path d="M286.11 9.24563C285.302 9.24562 285.071 10.0403 284.09 9.96461C283.532 9.92676 283.128 9.81325 282.666 9.62403C282.474 9.54835 281.916 10.0024 281.608 9.96459C281.204 9.8889 281.031 9.51044 280.416 9.92669C279.723 10.4186 279.588 10.3429 279.088 10.1158C278.665 9.88879 278.28 9.624 277.857 9.39694C277.357 9.13204 276.857 9.20764 276.51 9.54821C276.068 10.0402 275.26 10.078 274.741 9.96451C273.471 9.66176 272.24 9.24545 270.912 8.98054C270.643 8.9427 270.835 8.79139 270.989 8.56434C271.605 7.69398 271.066 7.12629 269.585 6.9749C269.47 6.9749 269.316 6.97486 269.22 7.05054C268.893 7.20191 268.854 7.3533 269.123 7.42899C270.047 7.73173 269.739 8.3751 269.874 8.90489C269.874 8.98057 269.701 9.13189 269.643 9.09405C269.45 9.09405 269.181 9.01833 269.085 8.94264C268.893 8.71559 268.719 8.26151 268.681 8.26151C267.45 8.52639 266.507 7.73176 265.372 7.84527C264.256 7.95878 263.333 7.92084 262.506 7.27752C261.659 6.59635 260.524 7.16397 259.524 7.16396C259.447 7.16396 259.274 7.35324 259.274 7.35324C259.428 7.46677 259.582 7.61809 259.774 7.65593C260.005 7.69378 260.294 7.65594 260.544 7.65594C260.659 7.65594 260.794 7.76954 260.832 7.84522C260.852 7.88306 260.717 8.03438 260.64 8.03438C259.909 8.22359 259.139 8.45067 258.485 7.95872C258.254 7.76951 258.197 7.27747 258.081 7.27747C257.196 7.27746 256.235 7.27748 255.427 7.54236C254.984 7.69373 255.35 8.41272 254.696 8.71545C254.696 8.71545 254.869 9.05602 254.965 9.05602C256.177 9.01819 257.37 8.94253 258.562 8.82901C259.389 8.75334 260.082 8.82909 260.678 9.24536C261.352 8.29931 262.275 8.71559 263.179 9.01834C263.641 8.41287 264.103 8.63993 264.603 9.01836C264.872 9.20757 265.199 9.39672 265.526 9.54809C265.603 9.58594 265.776 9.5481 265.911 9.5481C265.911 9.62378 265.988 9.77518 265.93 9.81302C264.91 10.305 263.795 10.4563 262.717 10.0022C262.217 9.81293 261.756 9.6994 261.352 10.0021C260.986 10.267 260.851 10.3806 260.197 10.1914C259.178 9.85081 257.966 9.85079 256.985 10.5319C256.754 10.6833 256.061 10.8347 255.984 10.759C255.253 10.1535 254.33 10.3427 253.426 10.3805C252.676 10.3805 251.829 10.6832 251.233 10.1156C249.829 10.0399 248.424 9.9264 247.212 10.6832C246.962 10.8346 246.481 10.7967 246.116 10.9103C245.154 11.1373 244.673 10.1912 243.577 10.4939C242.884 10.6831 242.018 10.6075 241.249 10.5696C241.134 10.5696 240.96 10.3047 240.941 10.1533C240.941 10.002 241.037 9.69924 241.153 9.69924C242.134 9.51004 243.153 9.24515 244.115 9.69927C244.866 10.0399 245.77 10.0398 246.251 9.66141C247.135 8.94242 247.732 9.16948 248.54 9.66144C248.694 9.73712 249.367 9.58577 249.54 9.4344C249.983 9.01815 250.213 9.13172 250.733 9.35877C251.098 9.51015 251.714 9.43443 252.214 9.43443C252.676 9.43444 252.907 9.20745 252.868 8.90471C252.849 8.63982 252.868 8.33708 252.753 8.07218C252.618 7.80728 252.329 7.69372 251.983 8.03429C251.425 8.56407 250.617 8.45053 249.867 8.37483C249.713 8.37483 249.636 8.11001 249.963 7.61806C250.271 7.31533 250.117 7.3153 250.021 7.35314C249.829 7.42882 249.54 7.58018 249.521 7.6937C249.463 8.22349 250.04 7.88287 250.271 7.88287C250.54 7.88288 250.771 7.65584 251.021 7.54232C250.81 7.46663 250.598 7.42878 249.963 7.65583C248.809 7.95855 247.867 8.29917 247.828 7.35312C247.828 7.23959 247.52 6.97471 247.366 7.01255C246.308 7.05038 245.25 7.12604 244.192 7.23956C244.096 7.23956 243.923 7.42872 243.942 7.42872C244.038 7.54225 244.192 7.73152 244.346 7.73153C244.866 7.73153 245.404 7.69366 245.924 7.69366C246.02 7.69366 246.154 7.80715 246.212 7.88283C246.251 7.92067 246.174 8.03427 246.116 8.07211C245.77 8.29916 244.615 8.41266 243.307 8.41264C242.98 8.41264 242.557 8.60187 242.345 8.79108C241.941 9.13165 241.691 8.90456 241.48 8.75319C241.211 8.56398 241.057 8.52613 240.903 8.75318C240.537 9.28297 239.845 9.2073 239.191 9.24513C239.133 8.71534 239.056 8.18558 239.017 7.61795C238.979 7.16384 238.652 7.01238 238.036 7.05021C237.132 7.12589 236.228 7.16379 235.324 7.23947C235.228 7.23946 235.151 7.46654 235.132 7.61791C235.132 7.65575 235.305 7.73135 235.42 7.7692C236.921 8.10979 236.959 8.10979 236.286 8.82878C236.247 8.86662 236.036 8.82877 235.901 8.82877C235.901 8.29898 235.343 8.26123 234.805 8.33691C233.862 8.45043 233.266 8.33685 233.266 7.58001C233.266 7.58001 232.785 7.46652 232.727 7.50436C232.381 7.84494 232.131 7.99622 231.573 7.65563C230.899 7.23936 230.053 7.6557 229.284 7.61785C229.168 7.46648 229.091 7.20152 228.937 7.20152C228.437 7.16367 227.899 7.20151 227.379 7.2015C226.244 7.20149 224.994 7.6934 224.013 6.93655C222.301 7.01221 220.588 7.01229 218.934 7.39069C218.242 8.10968 218.03 7.769 217.895 7.16352C217.857 7.01216 217.587 6.78519 217.434 6.78519C216.645 6.78518 215.798 6.78513 215.048 6.97433C214.51 7.08785 214.894 7.39065 215.202 7.50418C215.529 7.65555 215.625 7.84467 215.337 7.88251C214.721 7.99602 214.048 8.10958 213.471 8.03389C212.836 7.92035 213.201 7.39062 213.259 6.78515C213.317 6.59594 213.144 6.70946 213.028 6.78514C212.971 6.82299 212.99 6.97434 213.067 7.01219C213.124 7.01219 213.336 7.01219 213.394 7.01219C213.528 6.89867 213.644 6.78516 213.721 6.67163C213.721 6.67163 213.548 6.5581 213.259 6.78515C212.259 7.08787 212.028 7.80683 211.085 7.80682C210.624 7.80681 210.989 8.14745 211.239 8.33666C211.566 8.56372 211.47 8.82855 211.105 8.86639C210.72 8.86639 210.297 8.97987 209.931 8.94202C209.335 8.86633 208.796 8.60149 208.219 8.5258C207.584 8.4501 206.93 8.52578 206.276 8.52578C206.18 8.52577 206.026 8.41229 205.988 8.33661C205.968 8.29877 206.103 8.14733 206.199 8.14733C206.815 8.03381 207.45 7.95815 208.027 7.80679C208.161 7.80679 208.181 7.50408 208.681 7.01214C208.989 6.70941 208.835 6.70938 208.738 6.74722C208.546 6.8229 208.258 6.97425 208.238 7.08778C208.181 7.61757 208.758 7.27695 208.989 7.27695C209.258 7.27695 209.489 7.04992 209.739 6.93639C209.527 6.86071 209.316 6.82286 208.681 7.0499C207.007 7.54183 206.141 7.277 205.718 6.40662C206.122 6.40663 206.757 6.44448 206.872 6.29311C207.469 5.61196 208.392 5.64981 209.277 5.57413C209.373 5.57413 209.546 5.38485 209.527 5.38485C209.412 5.27133 209.181 5.04432 209.104 5.08216C207.969 5.46057 207.161 4.74154 206.18 4.70369C205.122 4.70368 204.064 4.8551 203.006 4.89294C202.794 4.89293 202.563 4.77934 202.333 4.70365C202.621 4.59013 202.929 4.43874 203.217 4.32521C203.333 4.28737 203.448 4.24954 203.544 4.2117C203.641 4.17386 203.795 4.06034 203.795 3.98466C203.795 3.90897 203.621 3.83337 203.525 3.83337C203.275 3.83337 203.006 3.83333 202.775 3.79548C201.678 3.56842 201.39 4.55235 200.39 4.55234C199.659 4.55234 198.754 4.40094 198.235 5.00641C197.87 5.42267 197.658 5.00636 197.369 4.96852C196.1 4.66577 194.83 4.81711 193.618 5.19552C193.291 5.30904 193.003 5.49823 192.695 5.6496C192.676 5.08197 191.483 4.96848 191.656 4.28733C191.656 4.28733 190.906 4.02239 190.656 4.13592C190.059 4.36296 189.617 5.00627 188.924 4.24942C188.674 4.43863 188.463 4.7035 188.136 4.81702C187.655 5.00623 186.443 4.81702 185.096 4.47642C185.038 4.47642 185.212 4.47643 185.269 4.47643C185.327 4.43858 185.308 4.28722 185.25 4.24938C185.038 4.09801 184.788 3.87096 184.538 4.24937C184.5 4.28722 184.788 4.43865 185.096 4.55218C185.192 4.70355 185.135 4.85482 185.058 5.04403C184.962 5.23324 184.327 5.61171 184.923 5.57387C185.923 5.53604 186.404 6.1793 187.405 6.10363C188.77 6.02796 190.252 5.46033 191.502 6.33072C191.675 6.21719 191.829 6.06592 192.021 5.95239C192.214 5.83887 192.445 5.80104 192.676 5.72536C192.618 6.06593 192.964 6.25505 193.368 6.21721C195.099 6.14155 196.831 5.99021 198.562 5.8767C198.754 5.87671 199.062 6.0281 199.158 6.14163C199.274 6.293 199.312 6.59579 199.197 6.67148C198.928 6.82284 198.427 7.04984 198.235 6.97415C197.562 6.70925 196.985 6.33086 196.465 7.12553C196.446 7.16338 196.215 7.12553 196.08 7.12553C195.811 7.12553 195.542 7.12548 195.099 7.20116C195.042 7.20116 195.215 7.20116 195.273 7.20116C195.33 7.16332 195.311 7.01196 195.253 6.97412C195.042 6.82275 194.792 6.5957 194.542 6.97411C194.503 7.01195 194.792 7.16328 195.099 7.2768C195.292 7.46602 195.311 7.61744 195.349 7.80665C195.388 8.07155 195.33 8.41211 194.869 8.26073C194.407 8.1472 194.041 7.95796 193.503 7.88227C192.502 7.76874 193.31 7.46604 193.464 7.20114C193.522 7.12546 193.33 6.86058 193.253 6.86058C192.464 6.86057 191.675 6.97408 190.886 6.97407C189.521 6.97406 188.039 7.57949 186.789 6.70911C185.481 6.78478 184.154 6.86044 182.845 6.93611C182.307 6.93611 181.826 7.01179 181.422 6.70905C180.96 6.33063 180.749 6.70911 180.749 6.89832C180.749 7.12538 181.114 7.57942 181.172 7.54158C182.268 7.2767 183.153 7.73087 184.077 7.95793C184 8.1093 183.961 8.41202 183.846 8.41202C182.692 8.56337 181.537 8.63903 180.383 8.75254C180.037 8.79038 179.537 8.90389 179.421 9.0931C179.21 9.43368 179.479 9.77422 179.979 10.0013C180.095 10.0391 180.171 10.1149 180.287 10.1906C180.095 10.3041 179.844 10.5311 179.748 10.4932C178.459 10.1526 177.113 10.0769 175.728 10.1148C175.632 10.1148 175.516 9.84991 175.401 9.69854C175.939 9.69855 176.459 9.58503 176.997 9.58504C177.517 9.58504 177.786 9.35798 177.728 9.09308C177.613 8.41192 178.229 8.37412 178.902 8.29844C178.998 8.29844 179.171 8.10917 179.152 8.10917C179.017 7.99564 178.863 7.84432 178.671 7.80648C178.325 7.73079 177.959 7.69299 177.594 7.6173C177.748 7.46593 177.902 7.35235 178.055 7.20098C178.132 7.1253 178.209 7.04962 178.286 6.97394C178.055 6.89826 177.825 6.74689 177.613 6.74689C175.612 6.8604 173.612 7.04961 171.611 7.12527C170.495 7.1631 169.245 7.61717 168.264 6.86031C166.936 6.93598 165.609 7.01165 164.282 7.08732C164.147 7.08731 164.012 7.31435 163.916 7.42788C163.916 7.42788 164.109 7.57928 164.205 7.57928C165.109 7.57929 166.071 7.35219 166.725 7.99551C167.533 7.95768 168.321 7.88209 169.129 7.84425C169.226 7.84426 169.437 7.9577 169.418 7.99554C169.341 8.14691 169.226 8.33614 169.11 8.37398C167.783 8.48749 166.455 8.60099 165.147 8.71451C165.051 8.7145 164.897 8.90378 164.897 8.90378C165.051 9.01731 165.224 9.20647 165.378 9.20647C166.186 9.20648 166.994 9.16862 167.783 9.0551C168.591 8.94158 168.956 9.35794 169.476 9.62284C169.572 9.66068 169.649 9.73632 169.745 9.81201C169.533 9.92553 169.341 10.0768 169.129 10.1147C168.495 10.1525 167.841 10.3418 167.283 9.9255C166.859 9.62276 166.321 9.62275 165.936 9.92549C165.571 10.2282 165.205 10.4174 164.609 10.4174C163.801 10.4174 162.82 10.7201 162.262 10.4931C161.588 10.2282 160.742 10.2281 160.203 9.88755C159.588 9.50912 159.453 9.92541 159.049 10.0389C158.491 10.1903 157.818 10.1903 157.183 10.1903C157.068 10.1903 156.914 9.92536 156.856 9.77399C156.779 9.58478 156.798 9.39556 157.376 9.16851C158.376 9.09284 158.78 9.09284 159.165 9.05501C159.992 8.97933 159.973 8.97943 159.472 8.44964C159.222 8.1469 159.03 7.84408 158.78 7.54134C158.761 7.54134 158.261 7.6549 158.28 7.69274C158.549 8.44958 157.799 8.60094 157.01 8.7523C156.914 8.7523 156.798 8.86581 156.76 8.97934C156.645 9.24423 156.779 9.31995 157.183 9.24427C157.433 9.16858 157.703 9.20643 157.376 9.24427C155.971 9.31994 155.183 9.39557 154.375 9.4334C153.586 8.52518 152.605 7.65488 153.817 6.55748C153.932 6.44395 152.97 5.64918 152.74 5.64918C151.547 5.72485 150.354 5.76267 149.161 5.87618C148.334 5.95186 147.642 5.91406 147.007 5.45995C146.834 5.34642 146.237 5.45998 145.853 5.49782C145.756 5.34645 145.66 5.08149 145.526 5.08149C145.045 5.04365 144.987 5.27072 145.045 5.57345C144.814 5.53561 144.564 5.49773 144.352 5.42205C144.141 5.34636 143.948 5.23288 143.756 5.11935C142.602 6.21676 140.851 5.72476 139.37 5.91396C138.773 5.98964 138.716 6.85998 137.927 6.36803C137.35 5.9896 136.696 6.14093 136.08 6.21661C135.388 6.29229 134.791 6.25445 134.31 5.87603C132.675 5.95169 130.963 5.61115 129.501 6.51934C129.097 6.78423 128.289 6.74637 127.693 6.85989C127.597 6.85989 127.443 7.01121 127.462 7.04905C127.462 7.12473 127.635 7.20045 127.751 7.20045C128.135 7.20046 128.52 7.20046 128.905 7.20046C129.905 7.20047 130.944 6.82209 131.887 7.46542C132.137 7.65463 132.887 7.46543 133.387 7.46543C134.714 7.38976 136.023 7.27622 137.35 7.20055C138.081 7.20056 138.042 7.61679 138.062 7.99521C138.062 8.0709 138.081 8.18445 138.1 8.26013C137.6 8.22229 137.138 8.41153 136.58 8.18448C135.465 7.73036 135.407 7.76815 134.676 8.37362C134.407 8.60067 134.214 8.86561 133.887 9.01698C133.599 9.1305 133.06 9.20614 132.829 9.09261C131.964 8.67634 131.271 7.91946 130.328 7.76809C129.232 7.57886 127.943 7.84381 126.75 7.95733C126.519 7.95733 126.308 8.10868 126.096 8.18436C126.231 8.29789 126.327 8.44928 126.5 8.56281C127.116 8.9034 127.731 9.24398 128.385 9.50888C129.174 9.84947 129.694 10.4171 129.463 10.8712C129.424 10.9468 129.078 11.0604 128.943 11.0225C128.597 10.9469 128.27 10.7197 127.924 10.7197C127.27 10.7197 126.577 10.8711 125.923 10.8332C124.019 10.7197 122.018 11.7036 120.19 10.6819C119.402 11.855 118.498 10.3413 117.67 10.7575C117.632 10.7575 117.401 10.6439 117.401 10.6061C117.401 10.5304 117.536 10.4169 117.632 10.4169C118.132 10.3413 118.671 10.2278 119.171 10.2278C120.498 10.2657 121.441 9.88721 122.133 9.13037C122.537 8.67627 122.768 9.13038 122.999 9.2439C123.634 9.54665 124.288 9.28176 124.904 9.24392C125.019 9.24393 125.25 8.94121 125.192 8.78984C125.096 8.56279 124.827 8.18435 124.634 8.18435C122.903 8.26002 121.152 8.41131 119.421 8.48698C119.209 8.48698 118.959 8.3735 118.748 8.29781C118.882 8.14644 119.036 7.99501 119.19 7.88149C119.517 7.57876 119.96 7.31394 120.133 7.01121C120.229 6.822 119.902 6.32996 119.748 6.32996C118.825 6.32995 117.901 6.40573 116.959 6.44357C116.305 6.44356 116.093 6.82191 115.747 7.0868C115.612 7.20033 115.593 7.35176 115.516 7.50312C115.747 7.54097 115.997 7.61665 116.228 7.61665C118.171 7.50315 117.786 7.80588 117.901 8.56272C117.978 9.09251 117.747 9.24382 117.209 8.97892C116.574 8.63834 115.785 8.714 115.112 8.37341C114.362 7.99498 113.073 8.48688 112.515 9.16804C112.457 9.24372 112.726 9.50872 112.746 9.50872C114.496 9.05463 113.727 10.6817 114.843 10.7196C114.708 10.8331 114.554 11.0602 114.439 11.0602C113.169 11.0223 111.803 11.6657 110.649 10.871C109.629 10.8331 108.514 10.6818 107.725 11.2872C107.167 11.7035 106.513 11.552 105.897 11.6656C104.782 10.9465 103.435 11.325 102.165 11.3628C101.146 11.3628 100.03 11.7412 99.2221 10.9844C98.6065 11.1357 97.8563 10.8708 97.3561 11.3249C96.8944 11.7412 96.452 11.8925 95.7017 11.5898C94.9707 11.2871 94.1628 10.9465 93.3356 10.8708C92.4314 10.7951 91.4696 10.9086 90.5462 11.0221C88.7956 11.2113 87.2952 11.2113 85.7754 10.9842C85.4099 10.9085 85.0252 10.8328 84.6597 10.8707C82.1204 11.022 79.5811 11.2112 77.0418 11.3626C76.0992 11.4382 75.1758 11.476 74.2332 11.5517C73.2906 11.6652 72.4442 11.6653 71.6555 11.1733C71.4631 11.0598 70.886 11.1733 70.482 11.249C68.0774 11.4003 65.6727 11.5517 63.2681 11.7409C62.5948 11.7787 62.0562 11.7408 61.4406 11.4759C60.9982 11.2867 60.1902 11.4003 59.5939 11.5138C58.4973 11.7408 58.5551 11.7408 58.1511 11.5894C57.4201 11.2867 58.0164 11.0597 58.2088 10.7948C58.632 10.1514 58.2088 9.8487 57.0546 9.96222C56.6891 9.96221 56.3428 10.1514 55.9965 10.2271C56.2274 10.4163 56.5159 10.5677 56.7083 10.7947C56.9969 11.1353 56.7468 11.7029 56.3043 11.665C54.7846 11.5893 53.1879 12.3084 51.6874 11.5137C51.6297 11.5137 51.2065 11.8921 50.8987 11.9299C50.2639 12.0434 49.5906 12.0813 48.9365 12.1192C42.6653 12.5354 36.3748 12.9893 30.1035 13.3677C28.7184 13.4434 27.2372 13.9731 25.9291 13.1406C25.7367 13.0271 25.1596 13.1406 24.7556 13.1785C22.8896 13.292 21.0236 13.4432 19.1384 13.5567C17.6764 13.6703 16.1951 13.8216 14.7331 13.8216C13.3481 13.8216 11.8283 14.4649 10.5972 13.5567C9.13516 13.6702 7.6539 13.7459 6.19189 13.8594C5.40317 13.8972 4.97998 13.216 4.03736 13.4431C3.42177 13.5944 2.71 13.5566 2.03671 13.5944C1.57502 13.5944 1.3057 13.4809 1.28647 13.1403C1.26724 12.8755 1.32494 12.5349 1.17105 12.3078C1.01715 12.0808 0.343867 11.8916 0.382343 11.7402C0.478531 11.4375 1.01717 11.2483 1.05564 10.7942C1.11336 10.113 2.07521 9.77242 2.61385 9.24263C2.74851 9.12911 3.03707 9.05344 3.28715 9.0156C4.15282 8.86424 5.11468 9.09133 5.82645 8.44802C6.3651 7.95608 7.67321 8.44799 8.23109 7.69116C8.36575 7.50195 9.19294 7.50196 9.71233 7.46413C14.1176 7.16144 18.5229 6.85871 22.9474 6.59386C23.7361 6.55603 24.4287 6.48041 25.1597 6.89668C25.5444 7.12374 26.4293 6.8967 27.0834 6.8967C33.3546 6.48051 39.6451 6.0264 45.9164 5.64805C47.0322 5.57238 48.2441 5.15616 49.3021 5.91301C49.533 6.06438 49.6292 5.19399 50.3794 5.53458C50.6872 5.68595 51.0527 5.7617 51.3989 5.83739C51.5144 5.83739 51.6683 5.83739 51.8029 5.83739C52.8417 5.95093 53.5728 4.43719 54.8039 5.53462C55.8619 5.53463 56.9007 5.45896 57.9588 5.42113C59.1707 5.34546 60.3634 5.2698 61.5753 5.19413C62.6526 5.11846 63.7106 5.00499 64.7879 5.005C65.3458 5.005 65.9614 5.38334 66.4038 5.26982C66.827 5.1563 67.1156 4.7779 67.7312 4.81575C69.3663 4.92929 71.1361 4.02109 72.6751 5.04285C72.9444 4.85364 73.1945 4.66445 73.4638 4.47525C74.4641 5.49699 76.3686 4.24823 77.4074 5.1943C77.6767 5.04293 77.9268 4.81594 78.2154 4.7781C79.1195 4.66458 80.0621 4.62672 80.9663 4.5132C82.005 4.36185 82.7745 4.58888 83.4286 5.08084C83.8903 5.45926 84.2173 5.42147 84.5828 5.00521C84.6982 4.89168 85.0252 4.81593 85.2561 4.81594C86.7181 4.70242 88.1994 4.62681 89.6614 4.5133C90.2577 4.47546 90.6232 4.62682 91.0657 4.85388C91.5466 5.08093 91.9506 4.85393 92.4315 4.66473C93.6434 4.05927 94.0859 4.09711 95.1824 4.66475C95.6826 4.92965 96.3943 5.49727 96.8368 5.11886C97.8948 4.21066 99.2606 4.51337 100.511 4.36201C100.819 4.32417 101.184 4.55129 101.511 4.66482C102.05 4.89188 102.473 4.81613 102.877 4.47556C103.012 4.36203 103.377 4.21064 103.397 4.21064C104.262 4.81612 104.916 4.70265 105.667 4.0215C106.013 3.71877 106.667 3.94584 106.975 4.51348C107.302 5.1568 107.629 4.85406 107.937 4.51349C108.148 4.28644 108.283 4.28644 108.514 4.51349C108.591 4.58918 108.706 4.66482 108.821 4.70266C109.456 4.92972 109.399 4.2107 109.918 4.32423C110.226 4.39992 110.726 4.627 110.784 4.58916C111.611 3.87017 112.534 3.94584 113.554 4.32427C113.862 4.4378 114.285 4.47568 114.65 4.47568C116.247 4.40001 117.863 4.28656 119.459 4.17305C120.037 4.13521 120.421 4.24865 120.902 4.43787C121.287 4.58924 121.922 4.62716 122.384 4.51364C122.961 4.40012 123.442 3.94601 123.999 3.90817C124.557 3.90818 125.134 4.21094 125.731 4.28663C126.096 4.32448 126.539 4.28657 126.923 4.21089C128.809 4.0217 129.001 3.98393 129.694 4.4002C130.29 4.74078 130.251 4.21096 130.54 4.13528C130.886 4.0596 131.444 3.87044 131.579 3.94613C132.406 4.47593 133.099 4.58939 133.868 3.8704C134.003 3.71903 134.714 3.68124 134.888 3.79476C135.445 4.13535 136.003 4.17318 136.696 4.13535C137.889 4.02183 139.12 3.83268 140.293 3.94622C141.236 4.02192 141.871 2.69746 142.852 3.71921L143.64 3.15149C144.602 3.98403 145.872 3.37863 146.988 3.45433C147.353 3.45433 147.699 3.56782 148.065 3.6435C148.95 3.82011 149.771 3.76963 150.527 3.49213C151.284 3.21463 152.105 3.18945 152.99 3.41651C154.048 3.64358 155.106 3.64355 155.933 3.26514C156.375 3.03809 156.779 2.65973 157.26 2.84895C157.799 3.03817 158.203 3.45443 158.588 3.79501C159.126 4.32481 159.126 4.32476 159.415 4.09771C160.088 3.49224 160.761 2.9625 162.031 3.07604C163.147 3.18958 164.416 2.54623 165.378 3.37876C166.302 3.34093 167.244 3.30318 168.168 3.22751C168.899 3.15183 168.976 3.4545 169.11 3.87077C169.36 4.55193 170.187 4.17358 170.765 4.17359C171.553 4.1736 171.457 3.75725 171.476 3.37883C171.515 2.43278 171.534 2.47066 172.65 2.35715C173.612 2.24363 174.497 2.24366 175.151 2.84914C175.709 3.34109 176.17 3.22757 176.555 2.73563C177.979 3.53033 179.556 2.88702 181.056 2.96272C181.403 2.96273 181.73 3.15189 182.076 3.26542C182.749 3.45464 182.769 3.45464 183.442 3.15191C183.711 3.03839 183.865 2.66005 184.288 3.00064C184.365 3.07632 184.481 3.15196 184.596 3.1898C185.558 3.53039 186.635 2.81136 187.635 3.379C188.559 3.9088 189.675 3.45478 190.694 3.45479C191.483 3.4548 192.195 3.37911 192.887 3.79538C193.253 4.02243 193.888 3.79536 194.176 3.41695C194.368 3.15205 194.522 3.1521 194.753 3.34131C195.119 3.68189 195.619 3.71977 196.177 3.60625C196.754 3.49273 197.196 3.64405 197.6 3.90895C197.658 3.94679 198.12 3.79543 198.12 3.79543C197.831 3.03859 198.639 2.92507 199.389 2.73587C199.601 2.69803 199.716 2.35743 199.928 2.35743C200.544 2.28176 201.448 2.09252 201.755 2.31957C202.39 2.73584 203.314 2.47097 203.852 2.92508C204.352 3.34135 204.468 2.81165 204.66 2.66029C204.91 2.50892 205.064 2.43324 205.237 2.66029C205.449 2.96303 205.295 3.49271 205.949 3.49271C206.565 3.49272 207.276 3.60627 207.777 3.15217C208.508 2.50886 208.912 3.53063 209.72 3.30359C210.354 3.15223 210.874 3.00093 211.355 2.66036C211.566 2.50899 212.105 2.58465 212.509 2.50897C212.971 2.43329 213.375 2.58465 213.394 2.84954C213.452 3.49286 213.913 3.60632 214.702 3.49281C215.087 3.45497 215.51 3.41717 215.914 3.41718C216.01 3.56855 216.106 3.8335 216.241 3.8335C216.722 3.87135 216.78 3.64428 216.722 3.34154C218.049 3.26587 219.357 3.15233 220.685 3.07666C221.57 3.03883 222.147 3.71994 223.205 3.4929C224.07 3.30369 225.148 3.15242 225.936 3.34164C226.687 3.53086 227.148 3.87141 227.668 3.19026C228.61 3.98495 229.841 3.56873 230.938 3.45521C232.15 3.30386 232.131 3.22819 232.977 4.06072C232.977 4.09856 233.016 3.98504 232.958 3.9472C232.9 3.9472 232.689 3.9472 232.612 3.9472C232.362 4.09856 232.054 4.28767 232.554 4.43905C232.612 4.43905 232.842 4.24993 232.977 4.06072C234.035 3.87152 235.093 3.83371 236.151 3.72019C236.478 3.72019 236.825 3.45521 237.055 3.266C237.286 3.07679 237.382 3.07679 237.652 3.266C238.133 3.60659 238.537 3.6066 238.498 3.03897C238.46 2.54702 238.825 2.39572 239.422 2.39573C240.172 2.39574 240.114 2.81197 240.153 3.19039C240.153 3.26607 240.172 3.37966 240.191 3.60671C240.191 3.64455 240.229 3.53092 240.172 3.49307C240.114 3.49307 239.902 3.49307 239.825 3.49307C239.575 3.64444 239.268 3.83366 239.768 3.98504C239.825 3.98504 240.056 3.79592 240.191 3.60671C240.576 3.45535 240.98 3.41744 241.384 3.41744C242.326 3.41745 243.211 3.34177 243.827 2.69846C243.904 2.62278 244.519 2.77419 244.885 2.84987C244.769 3.00124 244.673 3.15255 244.519 3.26608C244.212 3.45528 244.173 3.56883 244.519 3.64452C244.866 3.72021 245.385 3.64456 245.597 3.79593C246.251 4.28789 246.655 4.09865 247.02 3.64455C247.193 3.4175 247.309 3.15259 247.405 2.92554C247.501 2.62281 247.655 2.4715 248.136 2.39582C248.636 2.35799 248.925 2.50938 248.982 2.77427C249.078 3.1527 249.194 3.45537 249.925 3.41753C250.983 3.34186 252.06 3.19055 253.118 3.2284C254.253 3.22842 255.484 2.66072 256.523 3.37973C257.697 3.37974 258.87 3.34191 260.024 3.37976C260.236 3.37976 260.409 3.64473 260.64 3.68257C260.775 3.68257 261.025 3.60682 261.159 3.4933C261.217 3.45545 261.179 3.30417 261.159 3.22849C261.063 3.07712 260.948 2.92577 260.832 2.7744C260.698 2.58519 259.986 2.54725 260.563 2.20667C260.948 1.97963 261.852 2.13099 261.833 2.43373C261.775 3.07704 262.871 3.19064 262.891 3.79612C262.891 4.28806 263.602 4.17457 264.122 4.17457C264.218 4.17457 264.41 4.4773 264.372 4.51514C263.929 4.81787 263.718 5.3855 262.91 5.34765C261.775 5.3098 260.601 5.83951 259.505 5.15834C259.216 4.96912 258.505 5.12049 257.985 5.15832C254.927 5.3475 251.849 5.57453 248.79 5.76371C248.001 5.80155 247.193 5.99076 246.616 5.42312C246.058 5.7637 245.654 5.95298 244.866 5.49886C244.308 5.15828 243.769 5.80149 243.307 6.10422C243.23 6.14206 243.057 6.10422 242.923 6.10421C242.134 6.10421 241.711 5.46091 240.787 5.65011C240.037 5.80147 239.21 5.76361 238.421 5.7636C238.287 5.7636 238.152 5.49876 238.036 5.34739C237.498 4.66623 237.132 4.59055 236.401 5.12033C236.036 5.38522 235.728 5.7258 235.343 5.95285C235.189 6.06637 234.728 6.14205 234.612 6.06636C233.323 5.30951 231.861 5.76357 230.457 5.8014C229.899 5.80139 229.437 5.80136 229.014 5.53646C228.86 5.42293 227.629 6.06621 227.706 6.21758C227.764 6.3311 228.072 6.52034 228.187 6.4825C229.514 6.17978 230.688 6.6718 231.938 6.78534C233.112 6.86104 234.343 6.55825 235.536 6.5961C236.651 6.59611 237.632 7.1259 238.883 6.9367C239.922 6.7475 241.018 6.70968 242.076 6.70969C243.077 6.7097 243.827 7.35305 245.019 7.08817C246.02 6.86113 247.136 6.89899 248.213 6.86116C249.29 6.82333 250.367 6.78551 251.406 6.63415C252.503 6.48279 253.195 7.27743 254.349 7.05039C255.369 6.86119 256.465 6.86121 257.543 6.82338C258.601 6.7477 259.678 6.70988 260.736 6.59637C261.563 6.52069 261.929 7.27752 262.871 7.05048C263.622 6.86127 264.468 6.93701 265.257 6.86134C266.065 7.58035 267.161 7.27764 268.181 7.23981C269.123 7.20198 270.047 7.08839 270.989 7.05056C271.74 7.05057 272.586 6.74787 273.202 7.31551C273.24 7.31551 273.586 7.27764 273.721 7.16411C274.606 6.59649 275.645 6.71012 276.664 6.78582C276.799 6.78582 276.934 7.05069 276.991 7.23991C277.068 7.42912 277.049 7.6183 277.068 7.80751C276.703 7.80751 276.299 7.80746 275.991 7.88315C275.76 7.95883 275.664 8.26165 275.529 8.45086C275.26 8.45086 274.991 8.45082 274.548 8.5265C274.491 8.5265 274.664 8.5265 274.721 8.5265C274.779 8.48866 274.76 8.3373 274.702 8.29945C274.491 8.11024 274.24 7.92103 273.99 8.29945C273.952 8.33729 274.24 8.48861 274.548 8.60214C274.741 8.79135 274.779 8.94281 274.798 9.28339C274.798 9.32123 274.837 9.20759 274.779 9.16975C274.721 9.16975 274.51 9.16975 274.433 9.16974C274.183 9.32111 273.875 9.51034 274.375 9.66171C274.433 9.66171 274.664 9.47259 274.798 9.28339C275.337 9.13202 275.587 8.94281 275.529 8.56439C275.895 8.56439 276.299 8.56432 276.607 8.48864C276.837 8.41296 276.934 8.11024 277.068 7.92104C277.395 8.03456 277.78 8.11024 278.069 8.26161C278.338 8.41298 278.53 8.41299 278.626 8.1481C278.703 7.8832 278.665 7.61834 278.627 7.35344C278.569 6.89934 278.78 6.67228 279.454 6.63444C279.838 6.63445 280.377 6.48309 280.608 6.63446C281.166 6.9372 281.589 7.1643 282.051 6.55883C283.59 6.25611 285.263 6.25613 287.726 6.55889C287.88 6.55889 288.13 6.4075 288.245 6.29397C288.591 5.9534 288.938 6.10473 288.995 6.36962C289.149 6.93726 288.38 7.65623 287.572 7.76975C287.36 7.76974 287.091 7.69414 286.879 7.61845C286.668 7.54277 286.475 7.42917 286.283 7.31565C285.552 8.26169 284.186 7.8833 283.089 8.0725C282.262 8.18602 281.897 8.33736 282.051 8.6401C282.166 8.86715 282.397 9.09426 282.609 9.28347C283.301 9.92679 284.263 9.62405 285.148 9.62406C285.686 9.62406 286.225 9.58613 286.244 10.1159L286.11 9.24563ZM82.1974 6.97293C82.0627 6.8594 81.9281 6.74592 81.7742 6.67024C81.6972 6.67024 81.4856 6.67023 81.4471 6.67023C81.3894 6.70808 81.4087 6.85944 81.4664 6.89728C81.601 7.01081 81.7934 7.04864 81.9665 7.12433C82.005 7.12433 82.1204 7.01082 81.4279 6.67023C81.3317 6.51886 81.2356 6.25391 81.1009 6.25391C80.62 6.21606 80.5622 6.44311 79.8505 7.31347C79.7158 7.31347 80.0813 7.31347 80.4083 7.19995C80.5045 7.19995 80.6007 7.08647 80.6392 7.01079C80.6777 6.93511 80.6392 6.82155 80.62 6.74587C79.8312 6.85939 79.1195 6.85936 78.6001 6.3674C78.4654 6.48093 78.2153 6.63232 78.2153 6.74584C78.2153 7.27563 78.3307 7.54053 80.62 6.74587C80.8893 6.74587 81.1586 6.74586 82.1974 6.97293ZM123.288 6.14083C123.692 6.14084 124.096 6.14088 124.461 6.0652C124.634 6.0652 124.75 5.83817 124.846 5.72464C124.846 5.72464 124.673 5.57324 124.577 5.57324C124.076 5.57323 123.576 5.57319 123.076 5.64886C122.884 5.64886 122.576 5.83813 122.557 5.95166C122.499 6.48145 123.095 6.06521 122.595 6.44363C122.595 6.36794 122.614 6.25431 122.557 6.21647C122.499 6.21647 122.287 6.21646 122.21 6.21646C121.96 6.36783 121.653 6.55705 122.153 6.70843C122.21 6.70843 122.441 6.51924 123.288 6.14083ZM100.146 7.16228C100.877 7.0866 101.531 7.01102 102.165 6.8975C102.262 6.8975 102.377 6.78398 102.415 6.67046C102.531 6.40556 102.396 6.32985 101.992 6.40553C101.473 6.48121 100.915 6.55688 100.396 6.51903C99.0298 6.44333 99.0298 6.40545 98.7027 6.70818C98.6258 6.78386 98.4911 6.85954 98.4527 6.93522C98.4527 6.97306 98.5873 7.08666 98.6643 7.1245C99.1837 7.12451 99.6838 7.12454 102.377 6.44341C102.646 6.44341 102.916 6.44342 104.705 7.38949C105.628 7.31381 106.167 7.31379 106.667 7.23811C106.878 7.23811 107.071 7.04884 107.263 6.93531C107.167 6.85963 107.071 6.82183 106.975 6.74615C106.474 6.4434 105.974 6.17846 105.474 5.87572C105.051 5.64866 105.051 5.64865 104.782 6.3298C104.724 6.48117 104.57 6.63263 104.474 6.784C104.281 6.67047 104.089 6.55688 103.878 6.48119C103.666 6.4055 103.416 6.32979 103.185 6.32978C103.07 6.32978 103.416 7.31372 103.57 7.31372C104.089 7.31372 104.589 7.31369 103.185 6.32978C103.089 6.17841 102.993 5.91357 102.858 5.91357C102.377 5.87573 102.319 6.1028 100.126 7.12452L100.146 7.16228ZM100.242 8.78958C100.511 9.39505 101.088 9.69772 101.973 9.77341C101.915 10.114 102.242 10.3032 102.627 10.2654C104.435 10.1897 106.263 10.0384 108.071 9.92488C108.918 9.87443 110.078 9.72309 111.553 9.47083C111.418 9.3573 111.284 9.24371 111.13 9.16802C111.053 9.16802 110.841 9.16802 110.803 9.16802C110.745 9.20586 110.764 9.35733 110.822 9.39518C110.957 9.5087 111.149 9.54654 111.322 9.62223C111.361 9.62223 111.476 9.5086 110.784 9.16802C110.861 9.01665 110.899 8.82754 111.014 8.67617C111.13 8.5248 111.284 8.37338 111.438 8.25985C111.207 8.18417 110.976 8.07068 110.764 8.07068C109.61 8.14635 108.321 8.03278 107.686 8.97882C107.436 9.35724 106.936 9.43294 106.378 9.47077C104.916 9.54644 103.454 9.6599 101.992 9.77341C102.069 8.78952 101.723 8.52467 95.8556 9.58418C96.6636 9.58419 97.51 9.58417 98.241 9.43281C98.7797 9.28145 99.049 8.71388 99.8569 8.78957C99.9916 8.78958 100.184 8.78958 100.242 8.78958C100.299 8.75174 100.28 8.5625 100.222 8.52466C100.03 8.41113 99.7992 8.29761 99.5684 8.29761C98.7797 8.2976 97.9525 8.29752 97.5293 8.94083C96.4712 9.01651 95.4132 9.09221 94.3744 9.20572C94.2205 9.20572 94.0858 9.43276 93.9896 9.54628C93.9896 9.54628 94.182 9.69769 94.2782 9.69769C94.7976 9.69769 95.3362 9.62205 100.261 8.78958L100.242 8.78958ZM87.3529 9.09213C87.4875 9.09213 87.6799 9.01645 87.7376 9.09213C88.2955 9.58408 89.0265 9.65984 89.8345 9.50848C90.0653 9.47064 90.4308 9.35712 90.45 9.28144C90.5078 9.05439 90.5462 8.67596 90.3539 8.56243C89.8922 8.29753 89.5652 7.84337 88.7764 7.91905C87.0836 8.0704 85.3715 8.14609 83.6786 8.29744C83.5632 8.29744 83.467 8.52451 83.4093 8.67588C83.4093 8.71372 83.6209 8.86501 83.6786 8.82717C84.7751 8.52444 85.6215 8.97858 86.5642 9.20564C86.6603 9.35701 86.7565 9.62197 86.8912 9.62197C87.3721 9.65981 87.4298 9.43274 87.3721 9.13001L87.3529 9.09213ZM91.6428 7.12443C92.0275 7.12443 92.4315 7.12436 92.8162 7.04868C93.0471 7.04868 93.2394 6.89741 93.451 6.78388C93.3164 6.67036 93.1817 6.51896 93.0471 6.40543C92.5854 6.02701 92.1045 5.83779 91.6428 6.40542C89.7191 5.6864 87.6799 6.44319 85.7178 6.25396C85.4869 6.25395 85.333 5.98911 85.1022 5.95126C84.9868 5.95126 84.7174 6.06478 84.602 6.1783C84.4481 6.32967 84.8329 6.82159 85.0829 6.97296C85.5831 7.2757 86.0255 7.50274 86.795 7.42706C87.6992 7.31355 88.6033 7.35139 89.142 6.70808C89.8152 7.3514 90.7579 7.12441 84.7174 7.23788C84.7174 7.16219 84.7367 7.04868 84.679 7.01083C84.6213 7.01083 84.4096 7.01083 84.3327 7.01083C84.0826 7.16219 83.7748 7.35142 84.275 7.50279C84.3327 7.50279 84.5635 7.31353 91.6235 7.08655L91.6428 7.12443ZM163.358 6.25478C165.494 6.10343 167.629 5.98995 169.764 5.80076C169.918 5.80076 170.187 5.23316 170.072 5.11963C169.707 4.77905 169.226 4.40058 168.668 4.24921C168.245 4.13568 167.591 4.24923 167.148 4.40059C166.936 4.47627 167.013 4.89255 166.879 5.1196C166.821 5.23312 166.571 5.30872 166.379 5.3844C166.321 5.3844 166.148 5.27092 166.09 5.19523C165.936 4.96818 165.821 4.5141 165.705 4.5141C164.282 4.58977 162.839 4.70323 161.415 4.81674C161.358 4.81674 161.242 4.96817 161.281 5.00602C161.338 5.0817 161.473 5.19518 161.569 5.19518C162.089 5.19519 162.627 5.11951 163.147 5.1952C163.301 5.1952 163.455 5.38448 163.57 5.49801C163.589 5.49801 163.416 5.68717 163.32 5.68717C162.935 5.72501 162.512 5.725 162.127 5.80068C161.069 5.98988 160.396 5.80069 160.203 5.00601C160.203 4.93032 159.357 4.81671 159.184 4.93024C158.588 5.30865 158.107 5.76274 157.606 6.21684C157.472 6.33036 157.453 6.55743 157.376 6.7088C157.51 6.7088 157.645 6.7088 157.78 6.7088C159.646 6.5953 161.512 6.44402 156.645 6.78455C156.241 6.78454 155.798 6.78454 155.49 6.89806C155.26 7.01158 155.086 7.27649 155.067 7.50354C155.009 7.88196 155.356 8.03332 155.644 7.84411C156.01 7.61706 156.279 7.31427 156.875 7.31428C157.049 7.31428 157.376 7.12513 157.395 7.0116C157.453 6.48181 156.875 6.89798 163.397 6.33042L163.358 6.25478ZM175.42 5.98998C176.209 5.95215 177.017 5.91436 177.767 5.80084C177.959 5.80084 178.113 5.38453 178.132 5.15748C178.132 5.04395 177.882 4.77915 177.728 4.77915C176.94 4.77914 176.093 4.7412 175.381 4.93041C174.304 5.23313 173.881 4.17361 172.881 4.51417C172.65 4.58986 172.342 4.51413 172.111 4.58981C171.957 4.62765 171.765 4.89253 171.803 4.93037C171.919 5.08174 172.323 5.15745 172.361 5.30882C172.534 6.1035 173.169 6.33057 174.227 6.14137C174.612 6.06569 175.016 6.06573 175.401 6.06574L175.42 5.98998ZM40.203 9.9998C39.395 10.0376 38.6063 10.1134 37.7983 10.1891C37.7022 10.1891 37.5675 10.5297 37.6252 10.5675C38.0484 10.7946 38.3562 11.0594 38.3947 11.4757C38.3947 11.5892 38.991 11.7406 39.318 11.7406C39.7413 11.7406 39.9721 11.5136 39.9336 11.173C39.8759 10.7189 40.0491 10.4161 40.7031 10.8323C41.2995 11.2108 41.9535 10.9459 42.5883 10.9459C42.7422 10.9459 43.0116 10.6432 42.9923 10.6053C42.6076 10.3404 42.2421 9.99987 41.7804 9.92418C41.3187 9.81065 40.7224 9.96197 40.1837 9.9998L40.203 9.9998ZM110.014 5.91365C109.225 5.95148 108.764 5.91363 108.475 6.02715C108.244 6.14068 108.013 6.51915 108.129 6.67052C108.456 7.12462 108.956 7.5787 109.822 7.57871C110.476 7.57871 111.13 7.503 111.765 7.42733C111.88 7.42733 111.957 7.20025 112.034 7.04889C111.38 6.82183 111.418 6.29208 111.053 6.02718C110.803 5.83797 110.13 5.91361 110.014 5.87577L110.014 5.91365ZM48.6673 9.50804C48.5903 9.31883 48.5711 9.20528 48.5134 9.1296C48.3018 8.90254 48.1479 8.90254 47.9363 9.12959C47.7054 9.3188 47.5515 9.58367 47.0321 9.58367C46.3588 9.58366 45.7048 9.65933 45.0315 9.69717C44.9353 9.69717 44.8391 9.81065 44.7814 9.88633C44.7429 9.92417 44.7814 10.0378 44.8391 10.0756C45.4354 10.454 46.051 10.7946 46.6858 11.1352C46.7435 11.1352 47.186 10.9838 47.1668 10.9082C47.0321 10.3405 47.2629 10.0377 48.1671 9.99989C48.3787 9.99989 48.5518 9.62153 48.6865 9.47016L48.6673 9.50804ZM75.0797 7.69186C75.7338 7.65403 76.3878 7.61616 77.0419 7.54048C77.215 7.54048 77.3881 7.27565 77.4266 7.12428C77.4651 6.97291 77.3881 6.78368 77.2727 6.63231C77.0996 6.36741 76.9649 6.4431 76.7148 6.63231C75.6568 7.35129 74.4641 7.42696 73.2714 6.85931C72.9636 6.70794 72.829 6.63221 72.7135 6.93495C72.6366 7.08632 72.5981 7.27554 72.6751 7.42691C72.752 7.57828 72.9829 7.80536 73.1368 7.80536C73.7908 7.80537 74.4449 7.7297 75.0989 7.69186L75.0797 7.69186ZM211.874 4.70375C211.624 4.70375 211.335 4.70382 211.105 4.7795C210.893 4.85518 210.701 4.96865 210.508 5.08218C210.72 5.15787 210.931 5.30923 211.143 5.30923C212.143 5.30924 212.894 6.10395 213.99 5.6877C214.202 5.61202 214.375 5.49843 214.586 5.38491C214.49 5.30922 214.394 5.27143 214.298 5.19574C213.644 4.66594 212.817 4.55239 211.874 4.70375ZM181.518 5.61172C182.172 5.57388 182.826 5.53601 183.461 5.46034C183.576 5.46034 183.653 5.23326 183.692 5.0819C183.692 5.04405 183.5 4.93049 183.403 4.93049C182.749 4.93049 182.095 5.00616 181.441 5.04399C181.21 5.04399 180.883 5.04399 180.749 4.93046C179.941 4.2493 179.787 5.0062 179.383 5.23325C179.287 5.27109 179.113 5.42241 179.133 5.42241C179.248 5.53594 179.402 5.72522 179.537 5.72522C180.191 5.72522 180.845 5.64955 181.499 5.61172L181.518 5.61172ZM60.4403 8.67564C60.9597 8.59996 61.4791 8.59989 61.96 8.48637C62.3255 8.41069 62.2871 8.22146 61.9985 8.10793C61.5945 7.95656 61.229 7.76744 60.8443 7.61607C60.4403 8.14585 59.9786 8.10796 59.4592 7.6917C59.4592 7.6917 58.9975 7.88093 59.0168 7.95661C59.0745 8.18367 59.1514 8.52422 59.3823 8.63775C59.6516 8.75128 60.094 8.67555 60.4595 8.7134L60.4403 8.67564ZM75.3875 8.18383C74.8681 8.25951 74.3102 8.25949 73.887 8.41086C73.6754 8.48654 73.6946 8.86497 73.6946 9.12986C73.6946 9.20555 74.0409 9.24335 74.214 9.31903C74.6565 8.5622 75.8107 8.90278 76.5417 8.60005C76.6571 8.56221 76.7148 8.44873 76.7918 8.41089C76.6956 8.3352 76.5994 8.25949 76.484 8.25948C76.1185 8.25948 75.7337 8.25944 75.3682 8.22159L75.3875 8.18383ZM62.7295 9.05399C62.4794 9.05399 62.1716 9.05406 61.96 9.12974C61.7677 9.20542 61.633 9.39457 61.5945 9.54594C61.5561 9.69731 61.6522 9.88654 61.7677 10.0379C61.9408 10.3028 62.1331 10.265 62.3063 10.0379C62.5756 9.6595 63.0373 9.54596 63.5952 9.54596C63.6721 9.54596 63.7683 9.31889 63.7875 9.16752C63.7876 9.12968 63.6144 9.01623 63.499 9.01623C63.2489 9.01623 62.9796 9.01615 62.7295 9.05399ZM277.607 8.67793C278.126 8.67793 278.665 8.60226 279.184 8.56442C279.281 8.56442 279.454 8.41299 279.415 8.37515C279.338 8.26162 279.184 8.03458 279.069 8.03458C278.28 8.03457 277.492 8.11028 276.703 8.18595C276.607 8.18595 276.433 8.33727 276.472 8.37512C276.549 8.48864 276.664 8.67784 276.818 8.71568C277.049 8.75353 277.338 8.71569 277.607 8.71569L277.607 8.67793ZM67.4811 8.18375C67.6927 7.99454 67.8658 7.91879 67.8466 7.88095C67.7696 7.6539 67.7312 7.31334 67.5003 7.19982C67.2887 7.08629 66.827 7.19981 66.4808 7.19981C66.3846 7.1998 66.2307 7.38908 66.2307 7.38908C66.6346 7.65398 67.0579 7.91885 67.4811 8.18375ZM57.1123 6.82126C56.843 6.55637 56.0543 6.59427 55.785 6.89701C55.7465 6.93485 55.7465 7.04833 55.785 7.08617C56.035 7.35107 56.843 7.31328 57.1123 7.01054C57.1508 6.9727 57.1123 6.89695 57.1123 6.82126ZM46.0126 8.52408C46.3588 8.41056 46.5704 8.33482 46.7628 8.22129C46.8013 8.22129 46.7628 8.06997 46.7243 8.03213C46.3973 7.76723 45.5509 7.8429 45.4355 8.14563C45.397 8.22132 45.8202 8.41056 46.0126 8.52408ZM95.8749 6.63251C95.8749 6.63251 95.8749 6.48119 95.8364 6.44334C95.5094 6.17845 94.7014 6.25412 94.5283 6.55685C94.4898 6.59469 94.5283 6.70817 94.5668 6.74602C94.8938 7.01091 95.6825 6.93524 95.8941 6.63251L95.8749 6.63251ZM92.0082 8.75161C92.3545 8.71377 92.6623 8.52458 92.9701 8.41106C92.6238 8.33537 92.2776 8.22177 91.9505 8.22177C91.7582 8.22177 91.5658 8.41104 91.3734 8.52456C91.585 8.60025 91.8159 8.75161 92.0082 8.75161ZM104.185 8.56258C104.512 8.44905 104.743 8.37331 104.936 8.25978C104.974 8.25978 104.936 8.10846 104.897 8.07062C104.57 7.80572 103.724 7.88139 103.608 8.18413C103.57 8.25981 103.993 8.44905 104.185 8.56258ZM124.403 9.39532C124.211 9.50884 124.019 9.62232 123.826 9.698C124.038 9.77369 124.269 9.92505 124.461 9.92505C124.807 9.88721 125.115 9.69802 125.423 9.58449C125.077 9.50881 124.73 9.43313 124.403 9.35744L124.403 9.39532ZM161.396 7.31433C161.396 7.31433 161.396 7.16301 161.358 7.12516C161.031 6.86027 160.223 6.93594 160.05 7.23867C160.011 7.27651 160.05 7.38999 160.088 7.42784C160.415 7.69273 161.204 7.61706 161.415 7.31433L161.396 7.31433ZM217.664 4.81733C217.511 4.93086 217.126 5.15797 217.183 5.23365C217.357 5.53639 218.203 5.46064 218.472 5.15791C218.511 5.12006 218.511 4.96874 218.472 4.96874C218.261 4.89306 218.03 4.85526 217.664 4.77957L217.664 4.81733ZM223.416 5.61216C223.743 5.49864 223.974 5.42289 224.167 5.30937C224.205 5.30937 224.167 5.15804 224.128 5.1202C223.801 4.8553 222.955 4.93097 222.839 5.23371C222.801 5.30939 223.224 5.49863 223.416 5.61216ZM280.108 6.78585C279.819 6.93722 279.627 7.05065 279.434 7.16417C279.646 7.23986 279.877 7.39134 280.069 7.39134C280.416 7.3535 280.723 7.16419 281.031 7.05067C280.704 6.97498 280.377 6.86154 280.089 6.78585L280.108 6.78585ZM60.9597 6.44297C60.8058 6.51866 60.6327 6.59433 60.4596 6.67001C60.5558 6.70786 60.6712 6.85914 60.7481 6.8213C60.9405 6.78346 61.0944 6.66995 61.2675 6.59426C61.1714 6.55642 61.0752 6.48078 60.9597 6.4051L60.9597 6.44297ZM65.1726 6.44302C65.0572 6.32949 64.961 6.21586 64.8456 6.10234C64.7687 6.17802 64.5955 6.25377 64.6148 6.29161C64.6725 6.40514 64.8071 6.51865 64.9033 6.63218C64.9803 6.5565 65.0765 6.48082 65.1726 6.40514L65.1726 6.44302ZM48.8789 7.72946C48.8789 7.72946 48.6288 7.88078 48.648 7.91863C48.7057 8.03215 48.8404 8.14567 48.9366 8.25919C49.0135 8.18351 49.1867 8.10787 49.1674 8.07003C49.1097 7.9565 48.9751 7.84299 48.8789 7.72946ZM94.7399 5.1566C94.8361 5.08092 94.9131 5.00524 95.0093 4.92956C94.8169 4.89172 94.6438 4.81611 94.4514 4.77827C94.3937 4.77827 94.2975 4.89175 94.2013 4.96743C94.3744 5.00527 94.5668 5.08099 94.7399 5.11884L94.7399 5.1566ZM58.2665 8.52421C58.1703 8.48637 58.0549 8.33497 57.978 8.37281C57.7856 8.41065 57.6317 8.52417 57.4586 8.59985C57.5548 8.63769 57.6702 8.78909 57.7471 8.75125C57.9395 8.71341 58.0934 8.5999 58.2665 8.52421ZM34.9705 10.7188C34.8551 10.6052 34.7589 10.4917 34.6435 10.3782C34.5665 10.4539 34.3934 10.5296 34.4126 10.5675C34.4703 10.681 34.605 10.7945 34.7012 10.908C34.7781 10.8323 34.8743 10.7567 34.9705 10.681L34.9705 10.7188ZM59.5554 9.28111C59.5554 9.28111 59.3053 9.43243 59.3246 9.47028C59.3823 9.5838 59.5169 9.69732 59.6131 9.81084C59.6901 9.73516 59.8632 9.65952 59.844 9.62168C59.7862 9.50816 59.6516 9.39464 59.5554 9.28111ZM97.3946 7.23801C97.4908 7.16233 97.5678 7.08665 97.6639 7.01097C97.4716 6.97313 97.2984 6.89741 97.1061 6.85956C97.0484 6.85956 96.9522 6.97304 96.856 7.04873C97.0291 7.08657 97.2215 7.16229 97.3946 7.20013L97.3946 7.23801ZM140.947 4.13539C140.851 4.09755 140.736 3.94615 140.659 3.98399C140.466 4.02183 140.312 4.13535 140.139 4.21103C140.235 4.24887 140.351 4.40027 140.428 4.36243C140.62 4.32459 140.774 4.21108 140.947 4.13539ZM67.9427 9.47037C67.8273 9.39468 67.7311 9.35688 67.6349 9.2812C67.558 9.39473 67.4618 9.546 67.4233 9.65953C67.4233 9.69737 67.5965 9.77309 67.6927 9.81093C67.7696 9.6974 67.8658 9.54601 67.9427 9.43249L67.9427 9.47037ZM69.6741 9.47039C69.5779 9.43254 69.4625 9.28114 69.3855 9.31898C69.1931 9.35682 69.0393 9.47034 68.8661 9.54602C68.9623 9.58386 69.0777 9.73526 69.1547 9.69742C69.347 9.65958 69.5009 9.54607 69.6741 9.47039ZM78.5039 9.92456C78.3884 9.84888 78.2922 9.81108 78.1961 9.7354C78.1191 9.84892 78.0229 10.0002 77.9845 10.1137C77.9845 10.1516 78.1576 10.2273 78.2538 10.2651C78.3307 10.1516 78.4269 10.0002 78.5039 9.88669L78.5039 9.92456ZM201.275 2.84941C201.159 2.77373 201.063 2.73593 200.967 2.66025C200.89 2.77377 200.794 2.92505 200.755 3.03857C200.755 3.07641 200.928 3.15213 201.024 3.18998C201.101 3.07645 201.198 2.92506 201.275 2.81153L201.275 2.84941ZM206.218 3.64412C206.103 3.56843 206.007 3.53063 205.911 3.45495C205.834 3.56847 205.737 3.71987 205.699 3.83339C205.699 3.87123 205.872 3.94684 205.968 3.98468C206.045 3.87115 206.141 3.71988 206.218 3.60635L206.218 3.64412ZM163.012 7.2387C162.897 7.12518 162.8 7.01166 162.685 6.89813C162.608 6.97382 162.435 7.04945 162.454 7.0873C162.512 7.20082 162.647 7.31434 162.743 7.42786C162.82 7.35218 162.916 7.27651 163.012 7.20082L163.012 7.2387ZM210.316 4.09825C210.2 3.98472 210.104 3.87121 209.989 3.75768C209.912 3.83336 209.739 3.90911 209.758 3.94696C209.816 4.06048 209.95 4.174 210.047 4.28752C210.124 4.21184 210.22 4.13617 210.316 4.06048L210.316 4.09825ZM223.57 3.4929C223.474 3.56858 223.397 3.64437 223.301 3.72006C223.493 3.7579 223.666 3.8335 223.859 3.87135C223.916 3.87135 224.013 3.75787 224.109 3.68218C223.936 3.64434 223.743 3.56862 223.57 3.53078L223.57 3.4929ZM216.222 5.30928C216.222 5.30928 216.01 5.12004 215.933 5.15788C215.741 5.19572 215.587 5.30923 215.414 5.38492C215.51 5.42276 215.625 5.57416 215.702 5.53632C215.895 5.49848 216.049 5.38496 216.222 5.30928ZM242.865 7.65575C242.961 7.58007 243.038 7.5044 243.134 7.42871C242.942 7.39087 242.769 7.31515 242.576 7.27731C242.519 7.27731 242.422 7.3909 242.326 7.46658C242.499 7.50443 242.692 7.58014 242.865 7.61799L242.865 7.65575Z" fill="#ED1651"/>
<path d="M292.552 3.80013C292.745 3.87582 292.802 4.02721 292.764 4.06505C291.417 4.67051 290.167 4.74619 288.917 3.95149C288.224 3.49738 286.397 3.49729 285.685 3.8757C285.531 3.95138 285.55 4.21629 285.55 4.36766C285.512 4.89745 284.954 4.8975 284.434 4.8975C284.3 4.89749 284.069 4.67045 284.088 4.55693C284.261 3.80009 284.242 3.83789 283.896 3.57299C283.299 3.11888 283.126 3.57294 282.761 3.76215C282.376 3.95135 281.876 4.06489 281.453 4.2541C280.799 4.51899 280.76 4.51904 280.625 3.9514C280.568 3.68651 280.568 3.42153 280.452 3.15664C280.433 3.11879 280.01 3.04315 279.914 3.08099C279.529 3.34588 279.202 3.64862 278.875 3.91351C278.394 4.32976 278.259 3.83778 278.009 3.7621C277.74 3.64857 277.547 3.64856 277.451 3.87561C277.336 4.17835 277.586 4.63253 276.951 4.7839C276.374 4.93526 275.989 4.67026 275.566 4.4432C275.143 4.21614 274.143 4.63242 274.143 3.87558C274.681 3.87558 275.201 3.79991 275.739 3.76207C276.547 3.6864 276.547 3.68638 276.047 3.15659C275.912 3.00522 275.643 2.8539 275.662 2.74038C275.701 2.51333 275.855 2.1727 276.085 2.09702C276.374 2.02134 276.836 2.1349 277.124 2.24843C277.259 2.32411 277.124 2.66471 277.259 2.74039C277.528 2.89177 277.913 3.00532 278.24 3.00533C278.644 3.00533 278.933 2.77819 278.798 2.43761C279.798 2.24841 280.952 2.58906 281.837 2.02143C282.261 1.75654 282.607 1.41601 282.78 2.05932C282.992 2.81617 283.338 2.70256 283.876 2.21062C283.915 2.17278 284.3 2.21062 284.434 2.32415C284.877 2.58905 285.358 2.66481 285.819 2.39992C286.185 2.17287 286.377 1.75654 286.954 2.21065C287.108 2.32418 287.397 2.39994 287.628 2.39994C288.859 2.47564 289.128 2.28636 289.205 1.37815C289.224 1.11325 289.398 0.886271 289.494 0.621378C289.686 0.734906 289.936 0.810579 290.09 0.961949C290.667 1.52959 291.667 1.49176 292.418 1.7945C292.745 1.94587 292.995 2.13509 293.283 1.79451C293.937 0.961994 295.015 0.734958 296.265 0.734971C296.919 0.734978 297.592 0.621463 298.247 0.62147C298.42 0.621472 298.593 0.810712 298.785 0.886398C298.708 0.962081 298.631 1.07556 298.516 1.07556C297.727 1.15124 296.938 1.18906 296.169 1.30258C295.746 1.34042 295.573 1.87017 295.861 2.21075C296.053 2.4378 296.246 2.4378 296.438 2.21075C296.573 2.05939 296.785 1.94592 296.958 1.79455C298.035 2.85414 300.074 1.5675 301.247 2.58925C301.44 2.74062 302.325 2.58928 302.209 2.02165C302.152 1.68107 302.325 1.49181 302.729 1.37829C303.325 1.22693 303.652 1.56761 304.114 1.71898C304.576 1.87036 304.691 1.03781 305.153 1.34055C305.845 1.79466 306.98 1.52975 307.519 2.13523C307.557 2.13523 307.769 2.13523 307.904 2.13523C308.038 2.47581 307.75 2.70284 307.365 2.70283C305.807 2.85419 304.21 2.85415 302.671 3.04335C301.094 3.27038 299.208 2.74058 297.958 3.87583C296.919 3.9515 295.861 4.02717 294.822 4.10284C294.284 3.61089 293.553 3.53525 292.552 3.68661C292.495 3.68661 292.61 3.68661 292.726 3.68661C292.726 3.61093 292.745 3.49741 292.687 3.45957C292.475 3.27035 292.225 3.08114 291.975 3.45956C291.937 3.4974 292.225 3.64872 292.533 3.76225L292.552 3.80013Z" fill="#ED1651"/>
<path d="M309.426 8.30251C309.426 8.30251 309.291 8.75659 309.156 8.75659C308.425 8.87011 307.675 9.09716 306.944 8.64304C306.713 8.49167 305.982 8.41595 305.905 8.49163C305.097 9.36199 303.789 9.13497 302.654 9.24849C300 9.47551 297.326 9.58899 294.652 9.81601C294.075 9.85385 293.632 9.81605 293.228 9.51331C293.074 9.39978 292.766 9.36194 292.536 9.39978C291.766 9.39977 291.497 10.3836 290.573 10.0051C289.996 9.74023 289.515 9.55111 288.784 9.62678C288.015 9.70246 287.207 9.70241 286.438 9.7024C286.341 9.7024 286.207 9.58892 286.149 9.51323C286.091 9.43755 286.11 9.324 286.11 9.24831C286.784 9.24832 286.842 8.68067 287.322 8.64284C288.631 8.49148 289.977 8.45363 291.304 8.37796C291.689 8.37796 291.882 9.09703 292.459 8.56725C292.997 8.03747 293.247 8.56725 293.632 8.68078C293.69 8.68078 293.844 8.68071 293.901 8.60503C294.209 8.30229 294.421 8.11313 295.056 8.41588C295.864 8.79431 296.729 8.71857 297.48 8.1131C297.941 7.77253 298.057 7.81045 298.826 8.07535C299.134 8.18888 299.326 8.49162 299.692 8.07536C300.346 7.43205 301.404 7.77262 302.27 7.58342C303.962 8.45381 305.809 7.77262 307.598 7.77264C308.118 7.77265 308.637 7.77265 309.137 7.77266C309.272 7.77266 309.349 8.07538 309.445 8.22675L309.426 8.30251Z" fill="#ED1651"/>
<path d="M317.274 1.03645C319.813 0.885104 322.352 0.771665 324.872 0.506797C325.719 0.431122 326.2 0.847376 326.911 0.847383C327.489 0.090548 328.566 0.279793 329.393 0.279802C330.22 0.27981 331.028 0.620374 331.817 0.847435C331.951 0.885278 332.028 1.18803 331.99 1.3394C331.951 1.49077 331.778 1.71776 331.605 1.75561C331.086 1.83128 330.297 1.98272 330.066 1.83135C329.278 1.26371 328.373 1.45281 327.488 1.49064C326.161 1.56631 324.815 1.71769 323.487 1.75552C322.602 1.75551 321.64 2.17184 320.813 1.71773C319.871 1.15009 319.755 2.28529 318.947 2.13392C318.505 2.02038 317.928 2.2096 317.504 1.90686C317.1 1.60412 316.485 1.56627 316.158 1.90684C315.6 2.51231 314.754 2.32307 314.023 2.47443C312.926 2.66363 312.234 1.83115 311.079 2.05819C310.06 2.24739 308.963 2.20953 307.886 2.2852C307.886 2.2852 307.828 2.09596 307.867 2.02028C307.905 1.94459 308.021 1.83108 308.117 1.79324C308.752 1.71756 309.406 1.60405 310.06 1.56621C312.464 1.41487 314.85 1.22567 317.254 1.07432L317.274 1.03645Z" fill="#ED1651"/>
<path d="M296.403 6.90078C295.557 7.50624 295.018 7.58189 294.499 7.58189C294.306 7.58188 293.979 7.39261 293.979 7.27908C293.979 6.33303 293.056 6.63582 292.306 6.63581C292.075 6.63581 291.671 6.63581 291.613 6.52228C291.44 6.1817 291.825 6.1438 292.209 6.10597C293.075 5.99245 293.71 4.85725 294.845 5.80331C294.845 5.80331 295.326 5.46271 295.634 5.42487C297.211 5.27352 298.788 5.04646 300.366 5.04648C301.174 5.04649 302.001 5.42493 302.732 5.76551C303.482 6.1061 303.828 5.80345 304.406 5.50072C305.406 4.97095 306.098 5.08443 307.156 5.68992C307.253 5.7656 307.368 5.8034 307.464 5.87908C307.31 5.99261 307.176 6.21965 307.022 6.21964C306.098 6.29532 305.156 6.37106 304.232 6.40889C303.54 6.40889 303.078 6.67375 302.52 6.97648C301.732 7.39274 301.27 7.20355 300.289 6.40885C300.116 6.25748 299.904 6.14397 299.673 6.06828C299.365 5.91691 298.942 5.68987 298.692 5.72771C298.115 5.84123 297.596 6.14389 297.096 6.37094C297.076 6.37094 297.288 6.67374 297.423 6.78727C297.557 6.93864 297.769 7.01423 297.942 7.1656C297.73 7.27912 297.538 7.39268 297.307 7.43052C296.922 7.5062 296.518 7.50617 296.422 6.93854C296.845 6.33307 297.019 6.3709 297.076 6.33306C297.134 6.29522 297.115 6.14386 297.057 6.10602C296.845 5.91681 296.595 5.72759 296.345 6.10601C296.307 6.14385 296.595 6.29526 296.422 6.97642L296.403 6.90078Z" fill="#ED1651"/>
<path d="M267.567 2.66541C268.336 2.58973 268.317 2.96809 268.471 3.30867C268.625 3.64925 269.318 3.80069 269.722 3.61149C269.837 3.57364 269.875 3.34657 269.856 3.23304C269.798 3.04383 268.971 3.006 269.452 2.66543C269.933 2.32486 269.972 2.09772 269.356 1.87066C269.048 1.75713 269.029 1.5679 269.394 1.49222C269.722 1.41654 270.222 1.3787 270.453 1.49223C270.914 1.71929 271.241 1.94642 271.607 1.45448C271.799 1.18959 272.049 1.15175 272.165 1.45449C272.492 2.32486 273.184 2.77895 274.55 2.85465C275.204 2.8925 274.531 3.23305 274.435 3.42226C274.358 3.57362 274.281 3.76285 274.204 3.91422C272.742 4.02773 271.28 4.10335 269.818 4.21686C269.318 4.97369 268.779 4.5953 268.067 4.36824C266.721 3.95196 266.701 3.98981 267.375 3.19514C267.49 3.04377 267.529 2.85454 267.605 2.70317L267.567 2.66541Z" fill="#ED1651"/>
<path d="M149.47 8.30034C149.354 7.77055 150.008 7.54349 150.412 7.69486C151.316 8.03545 152.124 8.52739 152.913 8.9815C153.413 9.28425 153.933 9.01932 154.433 9.05716C154.471 9.32206 154.529 9.6248 154.51 9.88969C154.51 9.96538 154.067 10.1168 154.029 10.079C153.375 9.6627 152.778 9.51132 152.067 10.0789C151.374 10.6466 150.335 10.3438 149.45 10.4574C149.316 10.4574 149.008 10.268 148.931 10.1167C148.739 9.70041 149.066 9.17068 148.392 8.86794C148.027 8.71656 147.873 8.48953 148.315 8.30033C148.527 8.22464 148.835 8.26242 149.104 8.22458C149.239 8.22458 149.374 8.22458 149.508 8.22458C149.527 8.603 149.816 8.79227 150.759 8.86796C151.009 8.86796 150.893 8.79225 150.72 8.71656C150.643 8.71656 150.432 8.71656 150.393 8.71656C150.335 8.7544 150.355 8.90576 150.412 8.9436C150.547 9.05713 150.739 9.09496 150.912 9.17065C150.951 9.17065 151.066 9.05714 150.759 8.83008C150.355 8.30029 150.066 8.14898 149.508 8.18682L149.47 8.30034Z" fill="#ED1651"/>
<path d="M174.766 7.16643C174.901 7.16643 175.036 7.16643 175.17 7.16643C175.709 7.16644 176.094 7.31791 175.863 7.50712C175.709 7.62064 175.42 7.65847 175.209 7.73415C174.997 7.80984 174.786 7.92327 174.555 7.99895C174.709 8.11248 174.843 8.30176 175.016 8.30176C175.536 8.30176 176.074 8.30177 176.594 8.30178C176.69 8.30178 176.844 8.41526 176.882 8.49094C176.902 8.52878 176.805 8.68022 176.728 8.68022C176.382 8.79374 176.036 8.86934 175.67 8.94502C175.266 9.0207 175.709 9.55055 175.036 9.47485C174.285 10.4209 172.977 10.156 171.842 10.1938C171.554 10.1938 171.265 9.85323 170.919 9.70185C170.573 9.55048 170.573 9.47485 170.803 9.28565C171.323 8.86939 171.804 8.49089 172.746 8.4909C173.824 8.49091 173.747 8.15032 172.996 7.77189C172.939 7.77189 173.073 7.39357 173.15 7.39357C173.67 7.31789 174.208 7.31778 174.747 7.27995L174.766 7.16643Z" fill="#ED1651"/>
<path d="M208.275 9.96248C207.352 10.0382 206.428 10.1137 205.505 10.1137C205.159 10.1137 204.755 10.0003 204.505 9.84892C203.754 9.39481 202.639 10.1138 201.985 9.47045C201.85 9.31908 201.581 9.24341 201.388 9.12988C201.35 9.12988 201.35 8.97844 201.388 8.9406C201.446 8.86492 201.542 8.78928 201.658 8.75144C201.773 8.75144 201.927 8.7136 202.042 8.75145C202.619 8.90282 203.177 9.09198 203.754 9.16767C204.255 9.24336 204.832 9.16769 205.332 9.05417C205.947 8.94065 206.505 10.0002 207.121 9.05418C207.813 9.05419 208.314 9.54625 209.16 9.39489C209.891 9.24353 210.699 9.31914 211.488 9.31915C211.584 9.31915 211.718 9.43275 211.776 9.50844C211.949 9.77333 211.815 9.81112 211.411 9.81112C210.353 9.81111 209.295 9.92457 208.237 10.0002L208.275 9.96248Z" fill="#ED1651"/>
<path d="M222.937 7.88482C223.071 7.88482 223.264 7.80914 223.321 7.88482C224.418 8.83088 225.361 9.17149 227.13 9.32288C227.707 9.36072 228.246 9.58784 228.823 9.73922C228.746 9.89058 228.727 10.1555 228.592 10.1933C228.111 10.3068 227.534 10.4581 227.111 10.3824C226.303 10.1932 225.591 9.89054 224.63 9.96622C223.975 10.0041 223.437 9.4364 222.61 9.47423C222.244 9.47423 222.225 9.28499 222.552 9.09579C223.225 8.75521 222.994 8.30116 222.937 7.84705L222.937 7.88482Z" fill="#ED1651"/>
<path d="M219.895 9.47567C219.895 9.47567 220.011 9.85403 219.934 10.0054C219.895 10.1189 219.491 10.2326 219.453 10.2326C218.972 9.85413 218.376 9.81618 217.702 9.89185C216.933 9.96753 216.163 9.9676 215.394 9.96759C215.279 9.96759 215.086 9.70263 215.067 9.55126C215.048 9.39989 215.144 9.09718 215.24 9.09718C216.106 8.94582 216.991 8.90796 217.856 8.71876C219.28 8.45388 219.722 8.56746 219.876 9.47567L219.895 9.47567Z" fill="#ED1651"/>
<path d="M132.598 9.43464C133.752 9.43465 134.657 9.13199 135.464 9.73747C135.811 10.0024 136.426 9.7375 136.753 9.39692C137.157 8.98066 137.407 9.32124 137.465 9.51045C137.561 9.85103 137.561 10.2294 137.465 10.57C137.407 10.8349 137.157 10.8348 136.907 10.6078C136.753 10.4564 136.503 10.3051 136.292 10.3051C134.926 10.3051 133.483 10.7592 132.194 10.078C132.194 10.078 131.886 10.3428 131.694 10.4942C131.636 10.532 131.444 10.5699 131.425 10.5321C131.29 10.3807 131.117 10.2294 131.098 10.078C131.098 9.92662 131.175 9.66175 131.309 9.62391C131.79 9.51039 132.31 9.47248 132.56 9.43464L132.598 9.43464Z" fill="#ED1651"/>
<path d="M193.906 8.67871C194.694 8.56519 195.464 8.60299 196.022 9.09494C197.099 9.01927 198.157 8.94364 199.234 8.90581C199.331 8.90581 199.542 9.01925 199.523 9.0571C199.465 9.20846 199.369 9.35985 199.215 9.43554C198.907 9.5869 198.523 9.6248 198.196 9.73833C198.003 9.81401 197.695 10.041 197.676 10.0031C196.33 8.98138 194.233 10.3816 192.925 9.35983C192.771 9.2463 192.617 9.13275 192.463 8.98138C192.674 8.9057 192.867 8.7543 193.098 8.71646C193.348 8.67862 193.636 8.67867 193.925 8.64083L193.906 8.67871Z" fill="#ED1651"/>
<path d="M141.525 9.39448C141.582 9.81075 141.563 9.81064 140.794 9.99985C140.448 10.0755 140.178 10.3026 139.87 10.4162C139.678 10.4918 138.37 10.0377 138.428 9.8863C138.466 9.77277 138.716 9.54574 138.87 9.54574C139.774 9.54575 139.947 9.20521 139.87 8.63758C139.87 8.52405 140.448 8.33486 140.794 8.29702C141.198 8.29703 141.506 8.44842 141.467 8.78899C141.467 8.9782 141.506 9.16739 141.525 9.3566L141.525 9.39448Z" fill="#ED1651"/>
<path d="M183.058 8.87062C183.577 8.87062 184.097 8.75714 184.616 8.79499C184.789 8.79499 185.097 9.02204 185.097 9.13556C185.097 9.36261 184.943 9.62752 184.847 9.85457C184.655 9.77888 184.404 9.70313 184.27 9.55176C184.02 9.32471 183.923 9.36255 183.693 9.55175C183.52 9.66528 183.443 10.1951 182.923 9.81667C182.538 9.51393 182.077 9.43829 181.538 9.51397C181.461 9.51397 181.25 9.40041 181.269 9.36256C181.307 9.2112 181.403 9.02196 181.519 8.98412C182.019 8.90844 182.558 8.90845 183.058 8.87062Z" fill="#ED1651"/>
<path d="M203.044 6.4078C202.256 6.44563 201.486 6.52134 200.697 6.55918C200.524 6.55917 200.37 6.36993 200.197 6.29425C200.274 6.21857 200.351 6.10497 200.447 6.10497C202.006 5.99146 203.545 5.84012 205.103 5.76446C205.314 5.76446 205.603 5.87798 205.718 5.99151C205.93 6.21856 205.776 6.29431 205.372 6.2943C204.583 6.29429 203.814 6.37 203.025 6.44568L203.044 6.4078Z" fill="#ED1651"/>
<path d="M289.592 7.88306C289.072 7.88305 288.553 7.9588 288.033 7.9588C287.918 7.9588 287.764 7.7696 287.687 7.61823C287.668 7.58039 287.822 7.42895 287.918 7.42895C288.168 7.39111 288.437 7.39116 288.688 7.35332C289.419 7.35333 289.957 7.23976 289.861 6.59644C289.842 6.44507 290.073 6.29373 290.169 6.14236C290.323 6.25589 290.496 6.36944 290.63 6.52081C290.823 6.74786 290.881 7.01269 291.131 7.16406C291.496 7.39112 291.535 7.61827 291.131 7.73179C290.65 7.84531 290.092 7.80746 289.572 7.84529L289.592 7.88306Z" fill="#ED1651"/>
<path d="M319.908 8.11456C319.523 8.11456 319.119 8.19031 318.735 8.19031C318.6 8.1903 318.465 8.00111 318.388 7.84974C318.369 7.8119 318.523 7.66046 318.638 7.66046C319.735 7.5091 321.043 7.81192 321.774 6.90372C321.87 6.97941 321.986 7.0172 322.063 7.09289C322.39 7.35779 322.255 8.0011 321.87 8.03894C321.216 8.11462 320.562 8.11464 319.908 8.19032L319.908 8.11456Z" fill="#ED1651"/>
<path d="M147.2 9.58898C147.277 10.2323 147.335 10.3458 147.277 10.3836C147.143 10.4972 146.95 10.5729 146.796 10.6486C146.181 9.96739 145.161 10.4215 144.353 10.2701C144.238 10.2701 144.103 10.1565 144.065 10.1187C144.045 10.0808 144.161 9.96736 144.238 9.92952C144.776 9.74031 145.469 9.74038 145.777 9.28628C145.796 9.28628 146.008 9.21056 146.027 9.24841C146.412 9.58899 147.181 9.66462 147.181 9.66462L147.2 9.58898Z" fill="#ED1651"/>
<path d="M149.74 7.16736C149.221 7.16735 148.682 7.24302 148.163 7.28086C148.067 7.28086 147.855 7.16741 147.874 7.12957C147.913 6.9782 148.028 6.75113 148.124 6.75113C149.432 6.63762 150.76 6.56192 152.087 6.48625C152.183 6.48625 152.395 6.59981 152.376 6.63765C152.337 6.78902 152.241 7.0161 152.126 7.0161C151.337 7.09177 150.548 7.12956 149.759 7.20523L149.74 7.16736Z" fill="#ED1651"/>
<path d="M312.311 7.50978C312.311 7.50978 312.792 7.50974 313.119 7.58543C313.272 7.62327 313.33 7.85027 313.426 8.00164C312.792 8.00163 312.715 8.49359 312.291 8.60712C312.003 8.6828 311.58 8.60715 311.253 8.53146C311.099 8.49362 311.041 8.22874 311.022 8.07737C310.983 7.77464 311.214 7.58537 311.657 7.54754C311.791 7.54754 311.907 7.54762 312.311 7.50978Z" fill="#ED1651"/>
<path d="M236.96 10.3081C236.921 9.57644 237.3 9.17277 238.095 9.0971C238.229 9.0971 238.345 9.0971 238.479 9.0971C238.73 9.0971 238.98 9.09707 239.23 9.05923C239.018 9.96744 238.21 10.3459 236.96 10.3459L236.96 10.3081Z" fill="#ED1651"/>
<path d="M234.422 9.36396C234.557 9.66669 234.287 9.89372 233.922 9.93156C233.056 10.0451 232.171 10.045 231.286 10.1207C231.267 9.93148 231.248 9.7423 231.229 9.55309C231.536 9.40172 231.902 9.28822 232.113 9.09901C232.344 8.87196 232.46 8.87196 232.691 9.09902C233.152 9.55313 233.826 9.36391 234.441 9.32608L234.422 9.36396Z" fill="#ED1651"/>
<path d="M314.638 8.45268C314.541 8.45268 314.157 8.45268 313.772 8.45267C313.656 8.45267 313.522 8.33908 313.483 8.26339C313.291 7.99849 313.56 8.03635 313.81 7.92283C314.291 7.73362 314.522 7.1282 315.253 7.73368C315.369 7.84721 315.734 7.77152 315.965 7.84721C316.196 7.88505 316.427 7.99854 316.638 8.03638C316.465 8.14991 316.311 8.3391 316.119 8.37694C315.734 8.45262 315.33 8.45261 314.638 8.49045L314.638 8.45268Z" fill="#ED1651"/>
<path d="M141.409 6.59452C141.659 6.59452 141.928 6.51892 142.178 6.55677C142.582 6.55677 142.909 6.70804 142.851 7.04862C142.851 7.12431 142.928 7.23786 142.851 7.31354C142.64 7.61628 142.409 7.57851 142.043 7.38929C141.774 7.23792 141.37 7.23781 141.024 7.16212C140.812 7.08644 140.601 7.01076 140.408 6.93507C140.601 6.82155 140.793 6.70808 141.005 6.6324C141.101 6.59455 141.255 6.6324 141.389 6.6324L141.409 6.59452Z" fill="#ED1651"/>
<path d="M228.804 9.7405C228.766 9.47561 228.689 9.21063 228.727 8.94574C228.727 8.87005 229.093 8.68086 229.189 8.7187C229.862 8.90792 230.516 9.09715 231.151 9.32421C231.209 9.32421 231.17 9.51344 231.19 9.58913C230.382 9.62696 229.593 9.70267 228.785 9.7405L228.804 9.7405Z" fill="#ED1651"/>
<path d="M215.875 2.77483C215.76 2.62346 215.683 2.47199 215.548 2.32062C215.394 2.16925 215.183 2.09358 214.99 1.98005C215.183 1.86653 215.394 1.67737 215.567 1.67737C215.914 1.67738 216.375 1.75306 216.529 1.90443C216.722 2.09364 216.625 2.43418 216.664 2.69908C216.395 2.69908 216.125 2.69911 215.856 2.73695L215.875 2.77483Z" fill="#ED1651"/>
<path d="M144.911 7.50735C144.642 7.50735 144.392 7.54511 144.123 7.54511C144.026 7.54511 143.834 7.43166 143.834 7.39382C143.872 7.24245 143.969 7.05322 144.103 7.01538C144.623 6.9397 145.142 6.90187 145.662 6.90187C145.758 6.90188 145.95 7.01532 145.95 7.05316C145.912 7.20453 145.835 7.39376 145.681 7.4316C145.45 7.50729 145.161 7.46951 144.911 7.50735Z" fill="#ED1651"/>
<path d="M143.488 8.71846C143.219 8.71845 142.95 8.79414 142.719 8.71845C142.565 8.71845 142.45 8.52925 142.373 8.37788C142.353 8.34004 142.507 8.18872 142.604 8.18872C143.123 8.15088 143.642 8.07521 144.162 8.07521C144.277 8.07522 144.431 8.26441 144.508 8.41578C144.527 8.45362 144.373 8.60495 144.277 8.60494C144.027 8.64278 143.758 8.64285 143.508 8.68069L143.488 8.71846Z" fill="#ED1651"/>
<path d="M187.963 9.09832C186.885 9.174 186.732 9.09837 186.674 8.56858C186.674 8.41721 186.808 8.26575 186.924 8.11438C186.924 8.11438 187.116 8.11438 187.174 8.11439C187.559 8.34144 187.943 8.56859 188.29 8.79564C188.367 8.83348 188.367 8.98484 188.309 9.02269C188.251 9.06053 188.078 9.02268 187.943 9.02268L187.963 9.09832Z" fill="#ED1651"/>
<path d="M226.512 8.6421C226.396 8.56641 226.281 8.52861 226.243 8.45293C225.954 7.92314 226.3 7.58252 227.147 7.58253C227.358 7.58253 227.57 7.73389 227.782 7.80958C227.705 7.88526 227.628 7.9609 227.531 7.99874C227.166 8.18795 227.108 8.60422 226.531 8.60422L226.512 8.6421Z" fill="#ED1651"/>
<path d="M235.959 8.68101C235.997 8.94591 236.094 9.21073 236.017 9.43778C235.959 9.62699 235.824 9.9298 235.343 9.62706C235.093 9.47569 234.728 9.43778 234.42 9.32425C234.574 9.13504 234.651 8.83233 234.882 8.75664C235.17 8.64312 235.593 8.68101 235.959 8.68101Z" fill="#ED1651"/>
<path d="M139.273 6.78199C139.619 6.81983 139.773 7.27386 139.542 7.65228C139.504 7.72797 139.388 7.80372 139.292 7.84156C138.946 7.95508 138.811 7.87941 138.888 7.61451C138.946 7.38746 138.965 7.12256 139.023 6.89551C139.023 6.85766 139.177 6.81983 139.273 6.78199Z" fill="#ED1651"/>
<path d="M138.119 7.95898L138.927 7.95899C138.966 8.18605 139.043 8.45087 139.004 8.71577C139.004 8.79145 138.696 8.90496 138.504 8.9428C138.446 8.9428 138.254 8.82936 138.235 8.79152C138.177 8.52662 138.158 8.26172 138.119 7.95898Z" fill="#ED1651"/>
<path d="M185.001 7.0532C185.212 7.12889 185.424 7.1668 185.635 7.24249C185.385 7.35601 185.154 7.58305 184.885 7.58305C184.654 7.58305 184.077 7.92366 184.135 7.39388C184.135 7.28035 184.443 7.16673 184.635 7.0532C184.731 7.01536 184.885 7.0532 185.001 7.0532Z" fill="#ED1651"/>
<path d="M198.467 8.29685C198.467 8.29685 198.255 8.29685 198.198 8.29685C197.774 8.10763 197.717 7.57788 198.101 7.38867C198.159 7.38868 198.313 7.38868 198.371 7.38868C198.794 7.57789 198.852 8.10764 198.467 8.29685Z" fill="#ED1651"/>
<path d="M204.892 7.88153C204.661 7.91937 204.411 8.03288 204.18 7.99504C203.949 7.99504 203.757 7.84368 203.545 7.76799C203.737 7.65447 203.91 7.50315 204.122 7.46531C204.334 7.42747 204.603 7.46532 204.853 7.46532C204.968 7.46532 205.045 7.57888 205.142 7.61672L204.892 7.80588L204.892 7.88153Z" fill="#ED1651"/>
<path d="M189.906 9.28847C189.848 9.55336 189.194 9.62899 188.636 9.47762C188.54 9.47762 188.425 9.36406 188.367 9.32622C188.194 9.09916 188.309 8.98569 188.713 9.02354C189.059 9.06138 189.406 9.06134 189.752 9.09919C189.81 9.09919 189.848 9.21275 189.906 9.25059L189.906 9.28847Z" fill="#ED1651"/>
<path d="M191.271 8.94239C191.694 9.09376 191.771 9.62363 191.386 9.85068C191.329 9.85068 191.194 9.88852 191.117 9.85067C190.694 9.73714 190.617 9.16943 191.001 8.94239C191.059 8.94239 191.175 8.94239 191.271 8.94239Z" fill="#ED1651"/>
<path d="M213.414 9.96865C213.356 10.2335 212.702 10.3092 212.144 10.1578C212.048 10.1578 211.932 10.0442 211.875 10.0064C211.702 9.77934 211.817 9.66586 212.221 9.70371C212.567 9.74156 212.914 9.74152 213.26 9.77936C213.318 9.77937 213.356 9.89292 213.414 9.93077L213.414 9.96865Z" fill="#ED1651"/>
<path d="M315.466 5.65148C315.293 5.53795 314.87 5.38656 314.889 5.27303C314.985 4.97029 315.851 4.89462 316.178 5.15952C316.236 5.19736 316.255 5.31096 316.217 5.3488C316.024 5.42448 315.793 5.50011 315.466 5.65148Z" fill="#ED1651"/>
<path d="M268.316 9.66628C268.258 9.93118 267.604 10.0069 267.046 9.85555C266.95 9.85555 266.835 9.74199 266.777 9.70415C266.604 9.47709 266.719 9.36362 267.123 9.40146C267.47 9.43931 267.816 9.43927 268.162 9.47712C268.22 9.47712 268.258 9.59068 268.316 9.62852L268.316 9.66628Z" fill="#ED1651"/>
<path d="M145.87 5.193C145.928 5.4579 145.87 5.72281 145.39 5.68496C145.255 5.68496 145.178 5.42001 145.062 5.26864C145.332 5.26864 145.601 5.26872 145.87 5.23088L145.87 5.193Z" fill="#ED1651"/>
<path d="M119.382 9.13415C119.209 9.09631 119.017 9.02059 118.844 8.98274C118.921 8.90706 119.017 8.79358 119.094 8.79358C119.286 8.79358 119.459 8.86919 119.652 8.94487C119.575 9.02056 119.479 9.09623 119.382 9.17191L119.382 9.13415Z" fill="#ED1651"/>
<path d="M142.353 10.2337C142.353 10.2337 142.142 10.4228 142.123 10.4228C141.949 10.385 141.757 10.3093 141.622 10.1958C141.565 10.1579 141.545 10.0066 141.603 9.96875C141.661 9.9309 141.853 9.89306 141.93 9.96875C142.084 10.0444 142.219 10.1579 142.353 10.2714L142.353 10.2337Z" fill="#ED1651"/>
<path d="M155.414 9.77514C155.51 9.69946 155.587 9.62378 155.683 9.5481C155.78 9.66163 155.914 9.77514 155.972 9.88867C155.991 9.92651 155.818 10.0023 155.741 10.0779C155.626 9.96442 155.529 9.8509 155.414 9.73738L155.414 9.77514Z" fill="#ED1651"/>
<path d="M267.218 2.70376C267.084 2.59023 266.795 2.43891 266.834 2.40107C267.084 2.0605 267.334 2.24971 267.545 2.40108C267.603 2.43892 267.622 2.59028 267.565 2.62812C267.507 2.66596 267.334 2.62812 267.218 2.62812L267.218 2.70376Z" fill="#ED1651"/>
<path d="M286.342 0.8501C286.438 0.963627 286.573 1.07714 286.631 1.19067C286.65 1.22851 286.477 1.30415 286.4 1.37983C286.304 1.2663 286.169 1.15279 286.111 1.03926C286.092 1.00142 286.265 0.925783 286.342 0.8501Z" fill="#ED1651"/>
<path d="M278.49 2.47464C278.355 2.36111 278.067 2.20979 278.105 2.17195C278.355 1.83137 278.605 2.02058 278.817 2.17195C278.875 2.2098 278.894 2.36116 278.836 2.399C278.778 2.43684 278.605 2.39899 278.49 2.39899L278.49 2.47464Z" fill="#ED1651"/>
<path d="M222.57 7.88247C222.435 7.76895 222.147 7.61762 222.185 7.57978C222.435 7.23921 222.685 7.42842 222.897 7.57979C222.955 7.61763 222.916 7.73115 222.935 7.80683C222.82 7.80683 222.705 7.80683 222.57 7.80683L222.57 7.88247Z" fill="#ED1651"/>
<path d="M229.382 7.69848C229.228 7.81201 229.017 8.00124 228.94 7.9634C228.44 7.81203 228.747 7.6228 228.997 7.47143C229.074 7.43359 229.267 7.39575 229.344 7.47144C229.401 7.47144 229.382 7.6228 229.382 7.69848Z" fill="#ED1651"/>
<path d="M325.278 2.172C325.374 2.28553 325.509 2.39904 325.567 2.51257C325.586 2.55041 325.413 2.62605 325.335 2.70173C325.239 2.5882 325.104 2.47469 325.046 2.36116C325.027 2.32332 325.201 2.24768 325.278 2.172Z" fill="#ED1651"/>
<path d="M231.302 10.3433C231.148 10.4568 230.937 10.646 230.86 10.6081C230.36 10.4567 230.667 10.2675 230.917 10.1162C230.994 10.0783 231.187 10.0783 231.264 10.1162C231.321 10.1162 231.302 10.2676 231.302 10.3433Z" fill="#ED1651"/>
<path d="M236.978 10.5347C236.824 10.6482 236.612 10.8374 236.535 10.7996C236.035 10.6482 236.343 10.459 236.593 10.3076C236.67 10.2698 236.862 10.2319 236.939 10.3076C237.016 10.3833 236.978 10.459 236.978 10.5347Z" fill="#ED1651"/>
<path d="M312.869 5.69042C312.696 5.65258 312.503 5.57686 312.33 5.53902C312.407 5.46333 312.503 5.34986 312.58 5.34986C312.773 5.34986 312.946 5.42558 313.138 5.50126C313.061 5.57695 312.965 5.65262 312.869 5.7283L312.869 5.69042Z" fill="#ED1651"/>
<path d="M265.93 9.47423C265.873 9.20933 265.93 8.94442 266.411 8.98227C266.546 8.98227 266.623 9.24722 266.738 9.39859C266.469 9.39859 266.2 9.39851 265.93 9.43635L265.93 9.47423Z" fill="#ED1651"/>
<path d="M87.3732 9.09603C87.1038 9.09602 86.8345 9.09606 86.5652 9.1339C86.5075 8.869 86.5652 8.60409 87.0461 8.64194C87.1808 8.64194 87.2577 8.90678 87.3732 9.05815L87.3732 9.09603Z" fill="#ED1651"/>
</svg>
