<svg width="14" height="17" viewBox="0 0 14 17" fill="none" xmlns="http://www.w3.org/2000/svg">
<path d="M0.971862 7.76133C1.33756 6.64567 2.02222 5.45368 3.02585 4.18535C4.02948 2.91704 5.35555 1.54568 7.00408 0.0712891C8.65261 1.54568 9.97869 2.91704 10.9823 4.18535C11.9859 5.45368 12.6706 6.64567 13.0363 7.76133H12.075C11.7279 6.82561 11.1318 5.81821 10.2866 4.73913C9.44146 3.66004 8.34728 2.50926 7.00408 1.2868C5.67597 2.50926 4.58557 3.66004 3.73286 4.73913C2.88016 5.81821 2.28024 6.82561 1.93312 7.76133H0.971862ZM13.3114 9.93459C13.2801 10.233 13.2194 10.5218 13.1295 10.801C13.0395 11.0802 12.9219 11.3446 12.7768 11.5942L8.77163 15.5819C8.52202 15.7271 8.26052 15.8408 7.98712 15.9233C7.71371 16.0057 7.42957 16.055 7.1347 16.0713L13.3114 9.93459ZM9.34279 9.57238H10.6523L4.60618 15.6011C4.44481 15.5489 4.28895 15.4911 4.13861 15.4278C3.98827 15.3646 3.84345 15.2848 3.70413 15.1884L9.34279 9.57238ZM5.02933 9.57238H6.33888L2.1299 13.7813C2.01962 13.6629 1.92065 13.5428 1.833 13.4209C1.74534 13.299 1.65914 13.1678 1.5744 13.0273L5.02933 9.57238ZM0.660156 9.57238H2.03762L0.783806 10.8262C0.732719 10.6161 0.700211 10.408 0.686281 10.2019C0.672351 9.99584 0.663643 9.786 0.660156 9.57238Z" fill="black"/>
<path d="M0.971862 7.76133C1.33756 6.64567 2.02222 5.45368 3.02585 4.18535C4.02948 2.91704 5.35555 1.54568 7.00408 0.0712891C8.65261 1.54568 9.97869 2.91704 10.9823 4.18535C11.9859 5.45368 12.6706 6.64567 13.0363 7.76133H12.075C11.7279 6.82561 11.1318 5.81821 10.2866 4.73913C9.44146 3.66004 8.34728 2.50926 7.00408 1.2868C5.67597 2.50926 4.58557 3.66004 3.73286 4.73913C2.88016 5.81821 2.28024 6.82561 1.93312 7.76133H0.971862ZM13.3114 9.93459C13.2801 10.233 13.2194 10.5218 13.1295 10.801C13.0395 11.0802 12.9219 11.3446 12.7768 11.5942L8.77163 15.5819C8.52202 15.7271 8.26052 15.8408 7.98712 15.9233C7.71371 16.0057 7.42957 16.055 7.1347 16.0713L13.3114 9.93459ZM9.34279 9.57238H10.6523L4.60618 15.6011C4.44481 15.5489 4.28895 15.4911 4.13861 15.4278C3.98827 15.3646 3.84345 15.2848 3.70413 15.1884L9.34279 9.57238ZM5.02933 9.57238H6.33888L2.1299 13.7813C2.01962 13.6629 1.92065 13.5428 1.833 13.4209C1.74534 13.299 1.65914 13.1678 1.5744 13.0273L5.02933 9.57238ZM0.660156 9.57238H2.03762L0.783806 10.8262C0.732719 10.6161 0.700211 10.408 0.686281 10.2019C0.672351 9.99584 0.663643 9.786 0.660156 9.57238Z" stroke="black"/>
</svg>
