<svg width="33" height="33" viewBox="0 0 33 33" fill="none" xmlns="http://www.w3.org/2000/svg">
<path fill-rule="evenodd" clip-rule="evenodd" d="M16.6602 8.22168C11.1373 8.22168 6.66016 12.6988 6.66016 18.2217C6.66016 23.7445 11.1373 28.2217 16.6602 28.2217C22.183 28.2217 26.6602 23.7445 26.6602 18.2217C26.6602 12.6988 22.183 8.22168 16.6602 8.22168ZM4.66016 18.2217C4.66016 11.5943 10.0327 6.22168 16.6602 6.22168C23.2876 6.22168 28.6602 11.5943 28.6602 18.2217C28.6602 24.8491 23.2876 30.2217 16.6602 30.2217C10.0327 30.2217 4.66016 24.8491 4.66016 18.2217Z" fill="#343434"/>
<path fill-rule="evenodd" clip-rule="evenodd" d="M7.66016 19.2217C5.45102 19.2217 3.66016 21.0125 3.66016 23.2217C3.66016 25.4308 5.45102 27.2217 7.66016 27.2217C9.8693 27.2217 11.6602 25.4308 11.6602 23.2217C11.6602 21.0125 9.8693 19.2217 7.66016 19.2217ZM1.66016 23.2217C1.66016 19.908 4.34645 17.2217 7.66016 17.2217C10.9739 17.2217 13.6602 19.908 13.6602 23.2217C13.6602 26.5354 10.9739 29.2217 7.66016 29.2217C4.34645 29.2217 1.66016 26.5354 1.66016 23.2217Z" fill="#343434"/>
<path fill-rule="evenodd" clip-rule="evenodd" d="M16.6602 3.22168C14.451 3.22168 12.6602 5.01254 12.6602 7.22168C12.6602 9.43082 14.451 11.2217 16.6602 11.2217C18.8693 11.2217 20.6602 9.43082 20.6602 7.22168C20.6602 5.01254 18.8693 3.22168 16.6602 3.22168ZM10.6602 7.22168C10.6602 3.90797 13.3464 1.22168 16.6602 1.22168C19.9739 1.22168 22.6602 3.90797 22.6602 7.22168C22.6602 10.5354 19.9739 13.2217 16.6602 13.2217C13.3464 13.2217 10.6602 10.5354 10.6602 7.22168Z" fill="#343434"/>
<path fill-rule="evenodd" clip-rule="evenodd" d="M25.6602 19.2217C23.451 19.2217 21.6602 21.0125 21.6602 23.2217C21.6602 25.4308 23.451 27.2217 25.6602 27.2217C27.8693 27.2217 29.6602 25.4308 29.6602 23.2217C29.6602 21.0125 27.8693 19.2217 25.6602 19.2217ZM19.6602 23.2217C19.6602 19.908 22.3464 17.2217 25.6602 17.2217C28.9739 17.2217 31.6602 19.908 31.6602 23.2217C31.6602 26.5354 28.9739 29.2217 25.6602 29.2217C22.3464 29.2217 19.6602 26.5354 19.6602 23.2217Z" fill="#343434"/>
</svg>
