<svg width="8" height="12" viewBox="0 0 8 12" fill="none" xmlns="http://www.w3.org/2000/svg">
<path d="M7.28 6.71936C7.42069 6.57885 7.49982 6.38821 7.5 6.18936V5.80936C7.4977 5.61095 7.41888 5.42108 7.28 5.27936L2.14 0.149364C2.04612 0.0547077 1.91832 0.00146484 1.785 0.00146484C1.65168 0.00146484 1.52388 0.0547077 1.43 0.149364L0.72 0.859364C0.625936 0.951528 0.572928 1.07767 0.572928 1.20936C0.572928 1.34105 0.625936 1.4672 0.72 1.55936L5.17 5.99936L0.72 10.4394C0.625343 10.5332 0.572101 10.661 0.572101 10.7944C0.572101 10.9277 0.625343 11.0555 0.72 11.1494L1.43 11.8494C1.52388 11.944 1.65168 11.9973 1.785 11.9973C1.91832 11.9973 2.04612 11.944 2.14 11.8494L7.28 6.71936Z" fill="#C0C0C0"/>
</svg>
