<svg width="49" height="49" viewBox="0 0 49 49" fill="none" xmlns="http://www.w3.org/2000/svg">
<path fill-rule="evenodd" clip-rule="evenodd" d="M24.5627 38.1143H19.6279C17.9779 38.1143 16.6279 36.7643 16.6279 35.1143V20.1143C16.6279 19.2893 16.9579 18.5393 17.4979 17.9993L27.3829 8.11426L28.9729 9.68926C29.3779 10.0943 29.6329 10.6643 29.6329 11.2793L29.5879 11.7593L28.1629 18.6143H37.6279C39.2779 18.6143 40.6279 19.9643 40.6279 21.6143V24.6143C40.6279 25.0043 40.5529 25.3643 40.4179 25.7093L40.2017 26.2141C39.3611 25.6866 38.4404 25.2748 37.4621 25.0012L37.6279 24.6143V21.6143H24.1279L26.1379 13.6043L19.6279 20.1143V35.1143H24.1279C24.1279 36.1567 24.2798 37.1637 24.5627 38.1143ZM13.6279 20.1143H7.62793V38.1143H13.6279V20.1143Z" fill="#343434"/>
<path fill-rule="evenodd" clip-rule="evenodd" d="M34.6279 26.1143C29.6574 26.1143 25.6279 30.1437 25.6279 35.1143C25.6279 40.0848 29.6574 44.1143 34.6279 44.1143C39.5985 44.1143 43.6279 40.0848 43.6279 35.1143C43.6279 30.1437 39.5985 26.1143 34.6279 26.1143ZM22.6279 35.1143C22.6279 28.4868 28.0005 23.1143 34.6279 23.1143C41.2553 23.1143 46.6279 28.4868 46.6279 35.1143C46.6279 41.7417 41.2553 47.1143 34.6279 47.1143C28.0005 47.1143 22.6279 41.7417 22.6279 35.1143Z" fill="#343434"/>
<path fill-rule="evenodd" clip-rule="evenodd" d="M44.6887 30.175L34.628 40.2357L27.5674 33.175L29.6887 31.0537L34.628 35.9931L42.5674 28.0537L44.6887 30.175Z" fill="#343434"/>
</svg>
