<svg width="21" height="21" viewBox="0 0 21 21" fill="none" xmlns="http://www.w3.org/2000/svg">
<g clip-path="url(#clip0_409_4935)">
<path d="M14.4918 0.046875H11.039V13.67C11.039 15.2933 9.71102 16.6266 8.0584 16.6266C6.40577 16.6266 5.07778 15.2933 5.07778 13.67C5.07778 12.0759 6.37627 10.7715 7.96988 10.7135V7.29326C4.45805 7.35121 1.625 10.1628 1.625 13.67C1.625 17.2063 4.51707 20.0469 8.08792 20.0469C11.6587 20.0469 14.5508 17.1773 14.5508 13.67V6.68454C15.8493 7.6121 17.4429 8.16282 19.125 8.19182V4.77151C16.5281 4.68456 14.4918 2.5976 14.4918 0.046875Z" fill="#ED1651"/>
</g>
<defs>
<clipPath id="clip0_409_4935">
<rect width="20" height="20" fill="white" transform="translate(0.125 0.046875)"/>
</clipPath>
</defs>
</svg>
