<svg width="36" height="37" viewBox="0 0 36 37" fill="none" xmlns="http://www.w3.org/2000/svg">
<rect y="0.131958" width="36" height="36" rx="18" fill="#E9EAEA"/>
<path d="M25.2285 12.0616C24.4785 12.4291 23.7435 12.5783 22.9785 12.8041C22.1378 11.8553 20.8913 11.8028 19.6935 12.2513C18.4958 12.6998 17.7113 13.7963 17.7285 15.0541V15.8041C15.2948 15.8663 13.1273 14.7578 11.7285 12.8041C11.7285 12.8041 8.59202 18.3788 14.7285 21.0541C13.3245 21.9893 11.9243 22.6201 10.2285 22.5541C12.7095 23.9063 15.4133 24.3713 17.754 23.6918C20.439 22.9118 22.6455 20.8996 23.4923 17.8853C23.7449 16.9686 23.8703 16.0215 23.865 15.0706C23.8635 14.8838 24.9975 12.9916 25.2285 12.0608V12.0616Z" stroke="#ED1651" stroke-width="1.125" stroke-linecap="round" stroke-linejoin="round"/>
</svg>
